<svg width="78" height="40" fill="none" xmlns="http://www.w3.org/2000/svg"><g clip-path="url(#a)"><path d="M52.411 8.455c0 3.158-1.628 5.282-4.102 7.12 0 0-1.854 1.435-2.865 2.124l7.974 9.601c.226-.308 2.793-3.385 2.793-3.385H75.96v-8.572H56.21v-6.11l21.047-.015.002-9.216-29.763.003c3.11 1.6 4.914 4.684 4.914 8.45Zm7.287 21.738c-1.36 1.56-1.41 1.75-1.902 2.31l6.218 7.495 13.213-.002.002-9.798-17.53-.005ZM19.09 22.975l3.973-11.84 3.876 11.84h-7.849ZM36.53.002 16.194 0 .223 39.996 13.735 40l2.611-7.421 12.646.011c-.454-1.37-.692-2.91-.692-4.615 0-5.223 3.713-8.61 7.193-10.965-1.626-1.895-3.99-4.766-3.99-8.67 0-3.747 1.81-6.762 5.025-8.338Zm6.45 11.955c1.293-.919 2.302-2.01 2.302-3.445 0-1.895-1.235-3.33-3.315-3.33-2.193 0-3.315 1.435-3.315 3.33 0 1.493 1.233 2.928 2.638 4.593.564-.344 1.69-1.148 1.69-1.148Zm-7.202 16.185c0 3.39 3.144 6.455 6.513 6.455 2.361 0 4.105-.744 5.96-2.409l-8.426-10.304c-2.421 1.722-4.047 3.33-4.047 6.258Z" fill="#000"/></g><defs><clipPath id="a"><path fill="#fff" transform="translate(.223)" d="M0 0h77.037v40H0z"/></clipPath></defs></svg>