<svg xmlns="http://www.w3.org/2000/svg" viewBox="0 0 541.44 143.53"><defs><style>.cls-1{fill:#1c3f72}</style></defs><g id="Layer_2" data-name="Layer 2"><g id="图层_1" data-name="图层 1"><path class="cls-1" d="M260.12 18.73c-.17-12.6-14-9.14-14-12.95 0-1.55.34-1.9 1.72-1.9 6.39 0 12.61.69 19 .69 5.35 0 10.7-.69 16.05-.69 2.77 0 3.29.35 3.29 1.73 0 4.14-12.44.17-12.44 13.12v92.73c0 11.74 15.37 7.77 15.37 13 0 1.21-.52 1.73-3.45 1.73-4 0-11.4-.69-18.82-.69-10.54 0-14.17.69-16.58.69-3.11 0-3.63-.87-3.63-2.59 0-5 13.47.7 13.47-16.41ZM311.7 22.36c0-17.62-14.16-12.09-14.16-16.75 0-1.21 1.38-1.73 2.41-1.73 5.36 0 10.37.69 15.55.69 11.39 0 22.62-.69 37.47-.69 30.56 0 60.6 23.14 60.6 55.09 0 39.72-18.82 67.17-66.64 67.17-8.81 0-17.62-.69-26.43-.69-1.55 0-18.13.69-19.34.69-1.38 0-1.73-.69-1.73-1.73 0-4 12.27.35 12.27-16Zm13.63 78.74c0 2.76-.51 11.05 1.05 12.61 5.69 5.7 18.82 7.77 26.59 7.77 24.51 0 47.83-13.12 47.83-53 0-38.33-25.55-60.09-58.37-60.26-16.4 0-17.1 2.76-17.1 10.89ZM487.54 2.33C520 2.33 529 15.62 534 15.62c1.38 0 2.42-1.72 4.14-1.72 1.9 0 1.9 2.76 2.42 14 .34 9.16 1.9 14.84-1 14.84-2.07 0-3.27-4.48-4-5.68-10.7-18.49-23-29.71-45.24-29.71-33.67 0-49.91 22.45-49.91 54.56C440.39 92 457.67 122 490.82 122c27.11 0 44-17.26 46.62-25.2a2.9 2.9 0 0 1 2.42-2.24 1.74 1.74 0 0 1 1.56 1.89l-4 17.27c-.17.69-12.43 13.64-51.29 13.64-35.4 0-60.77-24.35-60.77-60.1s25.75-64.93 62.18-64.93M179.47 65.45H38.84a49 49 0 0 0-.23 6.2c0 1.27 0 3.07.09 4.65H0v2.57h185.4a71.76 71.76 0 0 0 .37-7.21c0-1.23 0-2.44-.1-3.64h36.53v-2.57h-42.73ZM136.69 4.09A75.17 75.17 0 0 0 71.52 12H0v2.56h156.53a73.9 73.9 0 0 0-13.44-7.89h79.11V4.09ZM57.73 23.34a83.57 83.57 0 0 0-7.61 9.33H0v2.56h175.87a77.63 77.63 0 0 0-6.55-9.29h52.88v-2.6H57.73ZM47.53 45.18h-3.76a70.37 70.37 0 0 0-3.44 11H0v2.57h184.57a61.43 61.43 0 0 0-3.36-11h41v-2.57H119.72ZM119.71 85.88H40.05a69.77 69.77 0 0 0 3.13 10.77H0v2.57h180.3a61 61 0 0 0 4.16-10.78h37.74v-2.6H119.71ZM119.71 104.45H45.4l2.14 2.9c3 4.06 5.9 7.87 9 11.38H0v2.56h165.44A79.1 79.1 0 0 0 176.89 107h45.31v-2.57H119.71ZM119.71 124.91h-57a75.42 75.42 0 0 0 96.29 2.53h63.2v-2.56H119.71Z"/></g></g></svg>