<svg xmlns="http://www.w3.org/2000/svg" width="518.25" height="118.85"><defs><style>.d{fill:#000006}</style></defs><g id="b"><g id="c"><path class="d" d="M125.18 96.41c.4.46 1.12-.06.82-.58L79.79 15.78h-.02L71.05.66c-.37-.65-.97-.69-1.29-.65-.32.03-.88.2-1.11.89L56.06 42.87c-1.97 6.57 2.95 13.19 9.81 13.19h12.62c7.3 0 14.25 3.16 19.05 8.66l27.63 31.69Z"/><path class="d" d="m47.38 45.62 9.8-32.72c.17-.57-.62-.92-.92-.4L.19 109.61c-.38.68-.12 1.2.16 1.52.29.32.78.65 1.5.34l.16-.06 49.76-18.3c5.96-2.19 8.51-9.23 5.34-14.73L49.68 65.5a25.326 25.326 0 0 1-2.32-19.88"/><path class="d" d="M116.92 118.83h14.89c.73 0 1.07-.48 1.2-.76.13-.28.28-.82-.15-1.38L95.38 73.74c-4.62-5.29-13.07-4.47-16.59 1.6l-7.14 12.34a25.296 25.296 0 0 1-13.19 11.08L6.32 117.87c-.53.2-.39.98.18.98h110.42v-.02Zm261.6-19.16c-22.24 0-40.33-18.09-40.33-40.33s18.09-40.33 40.33-40.33 40.33 18.09 40.33 40.33-18.09 40.33-40.33 40.33m0-87.18c-25.83 0-46.85 21.02-46.85 46.85s21.02 46.85 46.85 46.85 46.85-21.02 46.85-46.85-21.02-46.85-46.85-46.85M289.7 63.45c.84 0 1.62.42 2.09 1.11l26.55 39.42h7.86L297.18 60.9c-.64-.95-.64-2.18 0-3.13l29.02-43.08h-7.86l-26.56 39.42c-.47.7-1.25 1.11-2.09 1.11s-1.62-.41-2.09-1.11l-26.55-39.42h-7.86l29.02 43.08c.64.95.64 2.18 0 3.13l-29.02 43.08h7.86l26.55-39.42c.47-.69 1.25-1.11 2.09-1.11m228.56 40.54v-89.3h-6.52v79.39l-58.14-77.03a7.345 7.345 0 0 0-6.64-2.71c-3.73.45-6.48 3.74-6.48 7.5v82.15h6.52V22.1c0-.95 1.21-1.36 1.79-.6l62.26 82.49h7.21Zm-317.34-80.6c.72 0 1.38.43 1.68 1.09l35.33 79.51h7.13l-37.78-85.04c-1.08-2.6-3.57-4.26-6.36-4.26s-5.28 1.66-6.35 4.23l-37.82 85.06h7.14l10.89-24.48h46.45c.48 0 .91-.28 1.11-.72l2.18-4.92h-47.24l21.96-49.39c.29-.66.95-1.09 1.68-1.09Z"/></g></g></svg>