<svg width="380" height="51" fill="none" xmlns="http://www.w3.org/2000/svg"><path d="M345.767 16.001a11.675 11.675 0 0 0-5.653 1.38 12.117 12.117 0 0 0-4.36 3.965V16.91H328V47h7.754V32.272c0-5.66 2.602-9.036 6.961-9.036 3.84 0 6.588 2.628 6.588 7.02V47H357V28.575c.003-7.86-4.589-12.574-11.233-12.574Zm-76.643 30.977h-8.18V30.237c0-4.135-2.587-7.02-6.3-7.02-4.635 0-7.4 3.376-7.4 9.035v14.726H239V16.9h8.244v4.446a12.615 12.615 0 0 1 4.632-3.965 13.019 13.019 0 0 1 6.005-1.38c4.729 0 8.296 2.364 10.046 6.35a13.566 13.566 0 0 1 5.055-4.688A14.041 14.041 0 0 1 279.758 16C286.589 16 291 20.933 291 28.576V47h-8.176V30.259c0-4.135-2.588-7.02-6.304-7.02-4.631 0-7.4 3.376-7.4 9.035l.004 14.704ZM101.135 26.72l-1.761-.707 1.683-.86c.198-.1 4.703-2.509 4.703-8.306 0-4.894-4.35-9.847-12.666-9.847H73v40h20.133C106.333 47 107 37.937 107 36.12c.003-6.963-5.807-9.372-5.865-9.4ZM81.312 13.58h9.934c2.726 0 5.661 1.59 5.661 5.089 0 3.413-2.848 5.2-5.66 5.2h-9.935V13.582Zm11.235 26.84H81.312V30.13h11.235c3.68 0 5.603 2.616 5.603 5.204 0 2.952-2.356 5.092-5.603 5.092v-.006ZM141 32.011C140.821 22.587 134.337 16 125.226 16c-9.248 0-16.225 6.88-16.225 16.005a16.058 16.058 0 0 0 4.423 11.26c2.957 3.06 7.197 4.735 11.809 4.735 4.611 0 8.851-1.682 11.808-4.734a15.574 15.574 0 0 0 3.521-5.804h-7.473c-1.53 2.685-4.413 4.314-7.856 4.314-3.965 0-7.166-2.78-8.046-7.082l-.214-1.042H141v-1.641Zm-23.589-3.847a7.948 7.948 0 0 1 2.912-4.206 8.128 8.128 0 0 1 4.903-1.598c3.729 0 6.516 2.171 7.489 5.804h-15.304ZM215 32.011C214.826 22.587 208.546 16 199.721 16c-8.962 0-15.72 6.88-15.72 16.005a16.364 16.364 0 0 0 4.284 11.26c2.865 3.06 6.972 4.735 11.442 4.735s8.574-1.682 11.438-4.734a15.66 15.66 0 0 0 3.41-5.804h-7.247c-1.482 2.685-4.278 4.314-7.61 4.314-3.841 0-6.941-2.78-7.793-7.082l-.208-1.042h23.274l.009-1.641Zm-22.852-3.847a7.95 7.95 0 0 1 2.822-4.207 7.713 7.713 0 0 1 4.751-1.597c3.611 0 6.311 2.171 7.253 5.804h-14.826ZM324 32.011C323.826 22.587 317.545 16 308.719 16c-8.962 0-15.718 6.88-15.718 16.005a16.359 16.359 0 0 0 4.282 11.26c2.867 3.06 6.975 4.735 11.442 4.735 4.468 0 8.576-1.682 11.44-4.734a15.66 15.66 0 0 0 3.41-5.804h-7.248c-1.482 2.685-4.275 4.314-7.611 4.314-3.841 0-6.941-2.78-7.794-7.082l-.207-1.042H324v-1.641Zm-22.851-3.847a7.937 7.937 0 0 1 2.82-4.207 7.707 7.707 0 0 1 4.75-1.597c3.612 0 6.312 2.171 7.255 5.804h-14.825ZM237 16.03c-5.087-.315-9.412 1.886-11.6 6.056v-5.18H217V47h8.4V33.934c0-7.98 5.735-12.052 11.6-9.766V16.03Z" fill="#000B50"/><path d="M183.049 40.456a9.4 9.4 0 0 1-3.751.791c-3.568 0-5.536-2.165-5.536-6.097V23.096h9.64v-6.148h-9.646V4.003l-8.045 2.921v10.024h-13.666V4L144 6.921v29.306C144 43.93 148.001 48 155.566 48c2.952 0 5.484-.476 7.717-1.456l-1.952-6.082a9.394 9.394 0 0 1-3.751.791c-3.568 0-5.535-2.165-5.535-6.097v-12.05h13.672v13.121c0 7.702 4.001 11.773 11.569 11.773 2.949 0 5.482-.476 7.714-1.456l-1.951-6.088Zm195.028-.003a9.13 9.13 0 0 1-3.693.79c-3.518 0-5.454-2.164-5.454-6.097V23.093h9.496v-6.148h-9.499V4L361 6.921v29.306C361 43.93 364.942 48 372.399 48c2.909 0 5.405-.476 7.601-1.456l-1.923-6.091Z" fill="#000B50"/><path d="M32 41.911 57.414 51C61.578 45.703 64 38.958 64 31.434 64 13.514 50.245 0 32 0 13.755 0 0 13.515 0 31.434 0 38.959 2.427 45.694 6.589 51L32 41.911Z" fill="#FFC729"/></svg>