<svg width="84" height="50" fill="none" xmlns="http://www.w3.org/2000/svg"><g clip-path="url(#a)"><path d="m.828 25 .052-1.29.156-1.275.625-2.487 1.016-2.396 1.38-2.292 1.732-2.187 2.057-2.057 2.37-1.927 2.656-1.771 2.93-1.615 3.164-1.445 3.398-1.25 3.594-1.055 3.776-.846L33.68.495 37.755.13 41.961 0l4.192.13 4.076.378 3.932.612 3.776.846 3.594 1.055 3.385 1.25 3.165 1.445 2.93 1.602 2.655 1.77 2.37 1.928 2.058 2.057 1.731 2.187 1.38 2.292 1.016 2.396.625 2.487.156 1.276.052 1.289-.052 1.29-.156 1.262-.625 2.474-1.016 2.396-1.38 2.292-1.731 2.187-2.058 2.057-2.37 1.927-2.656 1.771-2.916 1.615-3.165 1.445-3.385 1.25-3.594 1.055-3.776.846-3.932.612-4.076.378-4.192.13-4.206-.13-4.089-.378-3.945-.612-3.776-.846-3.594-1.055-3.398-1.25-3.164-1.445-2.93-1.615-2.656-1.77-2.37-1.928-2.057-2.057-1.732-2.188-1.38-2.291-1.016-2.396-.625-2.474L.88 26.29.828 25Z" fill="#1B448E"/><path d="m70.385 20.872-.026-.403-.052-.404-.078-.378-.104-.377-.26-.716-.287-.703-.287-.69-.26-.69-.104-.352-.078-.365-.052-.377-.026-.378.338-.26.091-.079.078-.078.079-.078.065-.078.078-.104.078-.117.039-.065.026-.065.026-.066.026-.065.013-.065.013-.065.013-.065v-.065l-.013-.078-.013-.078-.026-.078-.039-.079-.052-.052-.052-.039-.026-.026-.026-.013h-.04l-.025-.013-.04-.013-.025-.013h-.04l-.038-.013H69.173l-.039.013-.078.04-.091.051-.091.065-.078.066-.065.065-.066.078-.065.078-.052.078-.09.17-.079.169-.143.338-3.203 3.906-.43-.039-.208-.013h-.209l-.208.013-.208.026-.209.04-.195.051-.195.066-.183.078-.182.09-.182.105-.17.117-.169.13-.156.144-.156.156-.17.182-.156.195-.13.209-.117.221-.104.235-.078.234-.066.247-.039.248-.026.247-.013.26.013.261.026.26.04.248.051.247.066.235.09.234-1.015 1.055-1.094.963-.286.221-.287.196-.143.078-.156.065-.143.052-.143.04-.053.012h-.195l-.039-.013-.039-.013-.039-.013-.04-.013-.038-.026-.04-.026-.038-.026-.026-.026-.026-.04-.026-.038-.013-.04-.04-.09-.026-.091-.012-.092v-.182l.012-.091.014-.091.026-.091.065-.183.078-.182.143-.339 4.557-11.184 6.888-.834.834-1.497h-6.836l.65-1.498-1.874.079-.612 1.315h-25.04l.613.573.221.234.195.247.17.26.156.261.13.274.117.286.091.3.078.3.066.299.039.312.026.313.013.312-.013.3-.026.299-.091.586 10.351-1.146 11.628-1.289-1.498 2.943-.442-.183-.404-.182-.417-.13-.43-.091-.43-.065-.442-.026-.442.013-.443.039-.443.065-.43.091-.43.13-.416.13-.404.157-.768.364-.703.43-.456-.156-.455-.104-.456-.066-.456-.026h-.456l-.455.04-.456.065-.443.104-.443.117-.43.143-.846.352-.794.416-.755.456-.039-.117-.04-.13-.051-.117-.065-.118-.065-.117-.078-.117-.079-.104-.09-.104-.092-.091-.104-.092-.104-.078-.117-.078-.118-.065-.117-.052-.13-.04-.13-.025-.3-.052-.3-.026-.299.013-.286.039-.287.065-.286.091-.274.104-.273.117-.508.274-.469.286-.755.534-.078-.052-.091-.052-.195-.104-.209-.104-.182-.078-.13-.04-.13-.039-.13-.026-.13-.026-.131-.013-.13-.013h-.274l-.273.026-.273.052-.26.065-.248.092.312-.573.143-.287.144-.3.117-.299.117-.3.091-.312.078-.312.04-.339.025-.338v-.339l-.026-.338-.052-.339-.078-.325-.091-.313-.117-.312-.13-.3-.157-.3-.182-.286-.195-.273-.222-.26-.234-.248-.26-.235-.274-.22.091-.092.091-.091.183-.17.195-.156.208-.143.417-.26.208-.13.196-.144.013-.013.013-.013.013-.013L37 9.48l.013-.013.013-.013.013-.013.013-.026v-.078l-.013-.026-.013-.04-.013-.025L37 9.232l-.013-.013-.013-.013-.013-.013-.013-.013-.013-.013h-.013l-.026-.013h-.066l-.012-.013-.014-.013-.338.09-.352.118-.351.13-.339.156-.586.3-.416.221-.808-.286-.833-.222-.86-.156-.872-.104-.885-.052h-.886l-.872.052-.86.104-1.327.313-1.303.403-1.263.495-1.21.6-1.16.702-1.093.82-1.029.951-.963 1.068-.352.534-.325.572-.287.6-.117.312-.104.313-.078.312-.052.313-.026.325v.326l.039.325.078.326.117.312.156.313.13.156.13.156.144.143.156.13.156.118.17.117.169.104.182.091.182.078.196.065.195.052.195.04.209.013.208.013.208-.013.209-.026.13-.04.13-.052.13-.052.13-.065.118-.078.117-.091.117-.091.104-.104.104-.105.092-.117.09-.117.092-.117.078-.117.065-.13.065-.13.052-.13-.234-.066-.234-.078-.235-.091-.117-.065-.104-.066-.104-.065-.105-.078-.09-.09-.092-.092-.065-.104-.065-.117-.052-.118-.04-.13-.025-.286v-.287l.013-.273.039-.274.052-.26.065-.26.091-.26.091-.248.235-.482.273-.469.3-.442.325-.43.846-.847.899-.742.95-.638 1.003-.534 1.042-.43 1.08-.325 1.12-.221 1.146-.13.82.039.404.039.39.065.365.091.183.065.169.065.17.091.155.092.157.104.143.13-1.758 1.094-.872.716-.808.781-.742.833-.703.873-.651.898-.625.912-1.172 1.836-.325-.026-.326-.013h-.325l-.313.026-.312.052-.3.078-.143.039-.143.052-.13.065-.13.065-.079.052-.078.052-.078.065-.065.066-.065.065-.066.065-.065.065-.052.078-.052.078-.039.078-.039.078-.039.091-.026.092-.026.09-.013.092.078.117.013.156.026.144.04.143.051.143.065.13.079.13.09.13.092.118.104.117.117.104.235.196.247.169.247.143-.182.482-2.018 4.388-.43.924-.221.43-.104.208-.118.183-.442-.157-.235-.065-.234-.052-.247-.039-.248-.026h-.13l-.13.013-.13.013-.13.026-.248.026-.248.052-.247.078-.234.105-.235.117-.234.143-.221.156-.209.17-.195.182-.182.195-.17.209-.156.22-.143.222-.13.235-.104.234-.091.234-.105.3-.078.3-.052.312-.039.312-.013.313.013.312.04.313.051.3.065.299.091.3.105.286.13.286.143.274.156.26.183.247.182.235-.117.156-.117.143-.26.274-.287.247-.3.234-.325.196-.339.182-.3.117-.351.13-.508.105-.273.039-.274.026h-.143l-.13-.013-.13-.013-.13-.026-.13-.04-.118-.038-.117-.066-.117-.078.169-.026.156-.039.157-.052.156-.065.143-.078.078-.04.065-.051.065-.052.065-.053.066-.065.065-.065.065-.065.065-.065.052-.065.052-.078.039-.078.04-.078.038-.078.026-.092.026-.09.013-.092.013-.078V36.042l-.013-.078-.013-.079-.026-.065-.026-.104-.039-.104-.039-.104-.052-.104-.065-.092-.065-.09-.078-.092-.079-.09-.09-.079-.092-.078-.09-.065-.092-.065-.104-.053-.091-.052-.105-.039-.104-.026-.117-.026-.117-.026-.117-.013-.117-.013h-.235l-.117.013-.117.013-.117.026-.118.026-.117.04-.104.038-.104.053-.104.052-.091.065-.092.065-.117.078-.117.091-.104.091-.091.104-.091.105-.079.117-.065.117-.052.117-.052.13-.039.13-.026.13-.013.144v.286l.013.144.026.143.026.17.04.155.169.222.078.156.09.143.105.13.117.13.117.118.13.117.13.117.144.104.143.092.3.156.3.13.429.117.43.078.43.04h.429l.417-.04.403-.065.404-.09.404-.118.768-.287.729-.351.677-.378.625-.377.677.364.651.313.326.13.325.117.326.117.338.105.651.143.651.09.651.04h.638l.638-.052.625-.091.612-.13.6-.183.585-.234.573-.274.56-.312.534-.352.52-.39.496-.43.468-.469.443-.508.443-.56.403-.585.352-.625.312-.651.26-.665.21-.69.168-.703.118-.716.078-.716.026-.73-.026-.728-.065-.716-.117-.704-.17-.69-.208-.677-.26-.65-.209-.496-.221-.494-.456-.95.495-.21.495-.234.99-.481.481-.235.456-.273.442-.3.43-.312.86-.651.43-.326.442-.312.286-.104.313-.092.312-.065.326-.039.156-.013h.156l.157.013.156.026.156.026.156.04.144.051.143.066-.6.638-.572.65-.534.678-.495.69-.455.716-.417.73-.39.741-.352.769-.287.755-.26.794-.209.82-.143.834-.039.416-.013.417.013.417.04.416.077.404.105.404.143.403.182.39.091.131.091.13.105.118.117.117.117.104.13.091.13.091.13.065.13.065.144.052.143.04.143.039.144.026.143.013h.156l.143-.013.547-.091.521-.144.508-.195.482-.247.468-.287.443-.325.43-.352.404-.378.755-.833.69-.898.612-.925.547-.911.859-1.693.39-.86.352-.872.3-.898.234-.925.156-.95.065-.99.547-.403.56-.378.586-.339.6-.286.624-.234.313-.092.325-.078.326-.065.338-.039.339-.013h.351l-.755.651-.703.703-.651.742-.6.769-.559.794-.508.82-.468.834-.417.833-.287.677-.234.73-.091.377-.078.39-.052.391-.04.39v.391l.027.39.065.379.09.377.131.352.17.338.22.326.261.312.117.117.117.105.13.09.13.079.144.065.143.052.157.04.156.038.156.026.156.013h.157l.156-.013.156-.013.156-.026.157-.039.156-.039.534-.208.52-.26.495-.313.47-.352.455-.403.43-.443.403-.469.378-.495.351-.52.326-.547.56-1.133.442-1.159.313-1.146.091-.625.052-.638v-.638l-.026-.312-.039-.313-.065-.312-.078-.313-.091-.3-.117-.286-.144-.286-.169-.274-.182-.26-.222-.26.235-.17.208-.143.182-.117.17-.104.286-.157.3-.143.312-.117.313-.104.325-.078.339-.066.338-.039.339-.013h.338l.339.026.338.04.326.065.312.09.3.118.286.13.274.156-3.112 6.927-.117.313-.105.326-.09.325-.066.339-.013.169-.013.17v.168l.013.157.04.156.038.156.065.156.078.157.066.104.065.091.078.091.078.078.078.078.091.066.091.065.091.052.183.104.195.078.195.065.196.052.442.013.43-.039.417-.078.39-.117.391-.156.365-.196.364-.221.352-.247.677-.56.65-.612 1.238-1.25.13.195.156.182.157.17.169.156.182.143.182.13.196.117.208.105.208.09.222.079.221.065.221.052.235.039.234.026.235.013.234.013v.04l-.04.077-.038.078-.091.144-.091.13-.105.117-.117.117-.117.104-.26.209-.313.208-.312.182-.313.157-.312.13-.313.117-.325.104-.651.195-14.766 3.555-9.557 2.33-.534.17-.521.235-.508.273-.247.156-.235.17-.221.182-.221.195-.209.209-.182.22-.17.235-.156.248-.13.26-.117.26-.078.196-.065.208-.065.208-.052.222-.04.234-.025.235-.014.234v.234l.014.235.026.234.052.221.065.222.078.208.104.208.117.196.13.182.092-.143.09-.13.105-.118.117-.104.117-.104.117-.091.118-.078.117-.065 26.094-8.112 1.562-.508.378-.143.377-.157.378-.182.364-.208.287-.196.26-.208.248-.221.221-.248.209-.26.182-.274.338-.56.287-.585.26-.6.508-1.197h.052l.013-.013h.039l.013-.013.013-.013.013-.013.156-.078.17-.105.338-.234.274-.195.078-.065.026-.013v-.013l.234-.183.222-.195.208-.195.195-.209.183-.221.169-.234.156-.235.13-.247.117-.248.105-.26.09-.26.079-.26.065-.261.04-.274.038-.273.052-.3Z" fill="#fff"/><path d="m68.367 21.315.091-.338.065-.339.04-.339.025-.338v-.677l-.065-.677-.104-.677-.13-.677-.274-1.316-2.018 2.722.235.182.22.182.21.196.195.208.169.208.156.222.143.234.13.235.118.247.104.247.091.26.065.261.052.26.04.274.038.547.118-.274.104-.26.09-.26.092-.313ZM66.83 22.852l.04-.235.012-.234v-.235l-.013-.234-.039-.234-.052-.222-.065-.221-.09-.208-.105-.209-.117-.195-.13-.195-.144-.183-.156-.169-.182-.156-.195-.156-.209-.13-2.851 3.723.169.209.182.182.195.17.196.155.208.13.208.105.209.091.104.04.104.025.156.04.157.025.156.013.156.013h.156l.157-.013.156-.026.156-.026.143-.039.144-.052.143-.052.13-.065.13-.078.13-.091.118-.092.117-.104.065-.117.065-.13.052-.13.052-.13.091-.274.091-.286ZM64.291 19.336l-.104-.026-.104-.013-.104-.013h-.208l-.105.013-.104.013-.104.026-.104.026-.104.039-.104.04-.092.038-.09.052-.092.065-.078.065-.078.066-.117.117-.104.13-.092.13-.09.143-.079.144-.065.143-.052.156-.04.156-.038.157-.013.156-.013.156v.156l.013.157.026.156.039.156.065.156 2.136-2.76ZM43.015 19.648l.013-.351v-.182l-.013-.183-.013-.09-.013-.092-.026-.078-.039-.078-.039-.065-.052-.065-.026-.026-.039-.026-.078-.04-.078-.039-.078-.026-.078-.013h-.079l-.078.013-.065.013-.065.026-.065.04-.065.038-.065.04-.13.104-.235.208-.86.912-.806.937-.769.977-.716 1.002-.664 1.029-.612 1.041-.56 1.068-.508 1.08-.338.717-.156.417-.144.43-.065.22-.039.222-.026.221-.013.222.013.221.026.209.052.208.078.208.026.04.026.038.026.04.027.038.039.026.039.027.039.026.039.026.039.013.039.013.039.013.04.013.038.013.04.013.038.013h.04l.064.013.066.013h.13l.13-.026.13-.04.13-.064.13-.078.13-.092.131-.09.26-.21.248-.233.43-.47.598-.728.56-.756.534-.768.495-.781.456-.807.43-.82.78-1.654.6-1.589.26-.807.104-.404.143-.43ZM34.33 15.17l.014-.404v-.404l-.026-.404-.053-.39-.039-.183-.052-.182-.052-.182-.065-.17-.078-.169-.078-.182-.104-.156-.117-.156-.704.65-.755.873-.703.898-.651.912-.612.924-2.266 3.802.391.222.182.117.17.117.156.13.143.13.143.157.13.17 1.446-.834.351-.235.339-.247.325-.26.313-.287.3-.3.273-.312.26-.325.235-.339.221-.352.208-.351.183-.365.156-.377.143-.378.117-.39.091-.391.066-.378ZM29.291 28.633l.118-.703.078-.73.039-.755-.013-.755-.078-.742-.066-.365-.078-.351-.104-.339-.117-.338-.13-.313-.156-.312-.235.065-.247.052-.26.052-.261.039-.52.052-.248.013h-.235l-1.992 4.323-1.08 2.122-1.185 2.07-.365.6-.417.612-.911 1.224-.899 1.08-.703.795.404.117.404.091.403.065.404.04.403.012.404-.013.39-.039.391-.065.378-.091.378-.104.364-.13.365-.144.351-.156.339-.182.338-.196.313-.208.404-.3.377-.312.352-.339.338-.351.625-.742.547-.794.456-.834.39-.872.313-.899.234-.95ZM27.234 21.745l.833-.091-.573-.352-.26.443ZM24.682 20.26l-.026-.013-.04-.013-.051-.013-.065-.026-.078-.013-.105-.026-.117-.013-.143-.026-.065-.013-.065-.013h-.13l-.066.013-.065.013-.052.013-.052.026-.052.026-.052.04-.052.038-.04.04-.038.052-.04.052-.025.039-.026.039-.026.039-.013.039-.013.039-.013.039-.013.04V20.793l.013.04.013.038.013.04.013.039.013.039.026.039.026.065.039.052.039.052.039.052.039.04.052.038.052.04.052.038.117.052.118.052.117.052.104.053.638-1.355ZM18.77 32.852l-.13-.118-.117-.117-.117-.117-.104-.13-.091-.13-.091-.13-.079-.144-.078-.143-.065-.156-.052-.144-.039-.156-.04-.156-.025-.156-.013-.157-.013-.169v-.156l-.209.182-.182.209-.156.22-.143.235-.117.248-.105.26-.078.26-.065.274-.039.17-.026.169v.338l.013.156.026.157.04.156.051.156.065.156.066.157.156.299.182.286.208.287.13-.13.652-.977.3-.495.142-.26.143-.234ZM51.388 22.24l.13-.612.091-.586.04-.547-.014-.508-.013-.234-.039-.222-.039-.208-.052-.195-.065-.183-.091-.156-.091-.143-.105-.13h-.052l-.026.013-.039.026-.091.065-.104.09-.235.248-.26.287-.482.56-.156.182-.039.052-.013.013-1.107 1.563-.508.807-.468.82-.43.834-.365.859-.312.872-.235.912-.09.482-.027.247-.013.247v.117l.013.118.013.117.026.117.04.117.038.117.066.105.065.104.052.052.052.052.065.039.065.026.065.026.065.013.078.013.066.013h.078l.065-.013.065-.013.065-.013.065-.026.065-.026.065-.026.065-.026.144-.065.143-.091.143-.105.143-.117.287-.26.273-.3.26-.325.248-.339.443-.65.56-1.03.52-1.028.235-.534.221-.534.195-.547.183-.533Z" fill="#1B448E"/></g><defs><clipPath id="a"><path fill="#fff" transform="translate(.828)" d="M0 0h82.227v50H0z"/></clipPath></defs></svg>