<svg xmlns="http://www.w3.org/2000/svg" width="473.41" height="90.88" viewBox="0 0 473.41 90.88"><defs><style>.cls-1{fill:#622b7a;}</style></defs><g id="Layer_2" data-name="Layer 2"><g id="Layer_1-2" data-name="Layer 1"><path class="cls-1" d="M69.35,71.28a13.31,13.31,0,0,0-15.12-6.79L49.58,58.6,30,33.78a20.55,20.55,0,0,1-8.61,6.82L41,65.42l4.64,5.88a13.39,13.39,0,1,0,23.74,0Z"/><path class="cls-1" d="M57.47,0A73.89,73.89,0,0,0,20.21,10.19a13.42,13.42,0,1,0,6.38,9A62.14,62.14,0,0,1,81.86,16a20.4,20.4,0,0,1,5.91-9.39A73.35,73.35,0,0,0,57.47,0Z"/><path class="cls-1" d="M101.48,8.34A13.38,13.38,0,0,0,89.61,27.92L85,33.79l-19.6,24.8A20.59,20.59,0,0,1,74,65.4L93.6,40.6l4.65-5.88a13.39,13.39,0,0,0,6.49-26A13.79,13.79,0,0,0,101.48,8.34Z"/><path d="M192.13,45.48H171.22v17.1h24.29v5.21H164.86V19.54h30.32v5.2h-24V40.28h20.91Z"/><path d="M201,49.56q0-8.25,3.91-13.27a13.31,13.31,0,0,1,20.22-.71V16.89h6.13v50.9H225.6l-.29-3.85q-3.69,4.52-10.24,4.51a12.25,12.25,0,0,1-10.16-5.1Q201,58.24,201,50Zm6.13.7q0,6.09,2.52,9.54a8.14,8.14,0,0,0,7,3.45A9,9,0,0,0,225.11,58V41.54a9,9,0,0,0-8.45-5.07,8.18,8.18,0,0,0-7,3.48Q207.11,43.43,207.11,50.26Z"/><path d="M239.29,49.56q0-8.39,3.88-13.34a13.37,13.37,0,0,1,20.51-.31l.3-4h5.6v35q0,7-4.13,11t-11.08,4a18.48,18.48,0,0,1-7.59-1.65,13.13,13.13,0,0,1-5.67-4.54L244.29,72a12,12,0,0,0,9.65,4.87,9.38,9.38,0,0,0,7-2.52,9.61,9.61,0,0,0,2.5-7.09V64.21a12.59,12.59,0,0,1-10,4.24,12.26,12.26,0,0,1-10.19-5.07Q239.3,58.31,239.29,49.56Zm6.16.7c0,4,.83,7.22,2.49,9.52a8.07,8.07,0,0,0,7,3.47A9,9,0,0,0,263.41,58V41.61A9.07,9.07,0,0,0,255,36.47,8.15,8.15,0,0,0,248,40Q245.45,43.43,245.45,50.26Z"/><path d="M293.7,68.45a15.67,15.67,0,0,1-11.86-4.79q-4.57-4.78-4.57-12.81V49.73a21.48,21.48,0,0,1,2-9.53,15.88,15.88,0,0,1,5.7-6.56,14.34,14.34,0,0,1,7.94-2.37q7,0,10.87,4.6t3.88,13.19v2.55H283.4a12.77,12.77,0,0,0,3.09,8.57A9.74,9.74,0,0,0,294,63.44a10.69,10.69,0,0,0,5.5-1.32,13.84,13.84,0,0,0,4-3.51l3.74,2.91Q302.72,68.45,293.7,68.45Zm-.76-32.15A8.16,8.16,0,0,0,286.71,39a13.05,13.05,0,0,0-3.11,7.57h18v-.47A11.74,11.74,0,0,0,299,38.87,7.71,7.71,0,0,0,292.94,36.3Z"/><path d="M320.54,31.93l.17,4a13.23,13.23,0,0,1,10.64-4.64q7.51,0,10.24,5.76a13.56,13.56,0,0,1,4.65-4.17A13.76,13.76,0,0,1,353,31.27q11.81,0,12,12.49v24h-6.13V44.13c0-2.57-.59-4.48-1.76-5.75s-3.14-1.91-5.9-1.91a8.14,8.14,0,0,0-5.67,2A8.27,8.27,0,0,0,343,44v23.8h-6.17V44.29q0-7.82-7.65-7.82-6,0-8.25,5.14V67.79h-6.13V31.93Z"/><path d="M389.14,68.45a15.67,15.67,0,0,1-11.86-4.79q-4.57-4.78-4.58-12.81V49.73a21.49,21.49,0,0,1,2-9.53,15.88,15.88,0,0,1,5.7-6.56,14.34,14.34,0,0,1,7.94-2.37q7,0,10.87,4.6t3.88,13.19v2.55H378.84a12.72,12.72,0,0,0,3.09,8.57,9.73,9.73,0,0,0,7.54,3.26,10.69,10.69,0,0,0,5.5-1.32,13.84,13.84,0,0,0,3.95-3.51l3.74,2.91Q398.16,68.45,389.14,68.45Zm-.76-32.15A8.15,8.15,0,0,0,382.15,39,13.12,13.12,0,0,0,379,46.58h18v-.47a11.67,11.67,0,0,0-2.51-7.24A7.73,7.73,0,0,0,388.38,36.3Z"/><path d="M431.09,58.28a4.52,4.52,0,0,0-1.87-3.87,18.1,18.1,0,0,0-6.53-2.36,31.26,31.26,0,0,1-7.39-2.39,10.53,10.53,0,0,1-4-3.31A8,8,0,0,1,410,41.77a9.27,9.27,0,0,1,3.73-7.45,14.53,14.53,0,0,1,9.53-3.05,15,15,0,0,1,9.89,3.15,10,10,0,0,1,3.79,8h-6.16a5.51,5.51,0,0,0-2.14-4.34,8,8,0,0,0-5.38-1.83A8.41,8.41,0,0,0,418,37.76a4.61,4.61,0,0,0-1.89,3.81,3.73,3.73,0,0,0,1.76,3.35,21.43,21.43,0,0,0,6.35,2.15,33.37,33.37,0,0,1,7.43,2.46A10.86,10.86,0,0,1,435.85,53a8.38,8.38,0,0,1,1.38,4.88,9.19,9.19,0,0,1-3.85,7.71,16.14,16.14,0,0,1-10,2.9,18,18,0,0,1-7.63-1.53,12.34,12.34,0,0,1-5.18-4.25,10.28,10.28,0,0,1-1.87-5.92h6.13a6.36,6.36,0,0,0,2.46,4.89,9.63,9.63,0,0,0,6.09,1.8A9.86,9.86,0,0,0,429,62,4.34,4.34,0,0,0,431.09,58.28Z"/><path d="M451.34,36.27a13.05,13.05,0,0,1,10.61-5q11.35,0,11.46,12.82v23.7h-6.13V44.06q0-3.89-1.77-5.73t-5.42-1.86a8.88,8.88,0,0,0-5.24,1.59,10.78,10.78,0,0,0-3.51,4.18V67.79h-6.13V16.89h6.13Z"/></g></g></svg>