<svg width="44" height="50" fill="none" xmlns="http://www.w3.org/2000/svg"><g clip-path="url(#a)"><path fill-rule="evenodd" clip-rule="evenodd" d="M39.915 0H4.653C1.794 0 .74 1.055.74 3.914v34.504c0 .324.013.624.041.903.065.624.078 1.229.658 1.918.057.067.65.508.65.508.318.156.536.272.895.416l17.364 7.275c.902.413 1.279.574 1.933.561h.005c.655.013 1.032-.148 1.933-.561l17.364-7.275c.36-.144.577-.26.896-.416 0 0 .593-.441.65-.508.58-.69.592-1.294.657-1.918.029-.279.042-.58.042-.903V3.914c0-2.86-1.055-3.914-3.913-3.914Z" fill="#2F2D2E"/><path d="m37.553 34.69-.008.079-.008.087-.016.08-.024.08-.015.071-.024.08-.032.071-.032.064-.031.072-.04.063-.04.064-.047.064-.04.063-.047.056-.056.056-.047.048-.063.055-.056.048-.063.048-.064.04-.063.047-.072.04-.07.031-.072.04-.08.032-.079.032-.079.024-.079.024-.071.024-.08.015-.07.016-.072.016-.08.016-.079.008-.07.008-.08.008-.087.008-.08.008h-.333l-.079-.008h-.087l-.079-.008-.08-.008-.086-.008-.08-.016-.079-.008-.08-.016-.078-.016-.08-.015-.079-.016-.08-.024-.07-.016-.08-.024-.079-.024-.071-.032-.08-.024-.07-.023-.08-.032-.071-.032-.071-.032-.072-.04-.071-.031-.071-.04-.063-.04-.072-.04-.063-.04-.064-.04-.063-.047-.063-.048-.064-.047-.063-.048-.056-.048-.063-.056.047-.063.056-.056.047-.064.056-.063.048-.056.047-.064.056-.063.047-.056.056-.064.047-.055.055-.064.048-.064.048-.056.055-.063.047-.064.056-.056.047-.063.064.048.07.047.065.048.07.048.064.04.072.047.063.04.072.032.063.04.07.032.072.032.072.031.07.024.072.032.08.024.079.024.07.024.08.016.08.015.079.016.087.008.08.016h.078l.087.008h.175l.087-.008.08-.016.07-.016.072-.015.063-.024.056-.032.063-.048.047-.056.032-.063.024-.072.008-.08v-.015l-.008-.096-.032-.08-.04-.055-.055-.048-.063-.048-.064-.032-.07-.031-.08-.032-.095-.04-.056-.016-.063-.016-.071-.024-.072-.016-.079-.024-.08-.016-.086-.023-.08-.016-.087-.024-.079-.016-.08-.024-.078-.016-.08-.024-.071-.024-.08-.016-.07-.023-.072-.024-.071-.024-.087-.032-.08-.032-.079-.032-.08-.032-.07-.04-.08-.04-.063-.039-.071-.04-.063-.047-.064-.04-.055-.048-.056-.056-.055-.055-.048-.056-.047-.056-.04-.055-.04-.064-.04-.072-.031-.055-.024-.064-.023-.071-.024-.064-.016-.08-.016-.071-.008-.08-.008-.08-.008-.087v-.184l.008-.079.008-.071.008-.08.016-.071.016-.072.024-.072.016-.071.03-.072.033-.072.032-.071.039-.072.04-.072.047-.063.048-.064.055-.064.056-.055.055-.064.064-.056.055-.04.064-.047.063-.048.063-.04.071-.04.072-.031.07-.04.073-.032.079-.024.079-.032.071-.024.064-.015.07-.016.072-.016.08-.016.07-.016.08-.008.08-.008.078-.008.08-.008H35.247l.087.008.088.008h.079l.087.008.08.016.086.008.08.016.071.016.08.015.078.017.072.015.08.024.07.024.072.016.08.032.07.024.071.032.072.031.08.032.07.04.064.032.071.04.071.04.063.04.072.047.063.04.064.048.063.047.063.048-.047.064-.04.063-.047.064-.048.064-.047.071-.04.064-.048.064-.047.063-.04.064-.047.064-.048.063-.04.064-.047.072-.048.063-.047.064-.04.064-.047.063-.063-.047-.072-.04-.063-.04-.064-.048-.07-.032-.064-.04-.072-.031-.063-.032-.071-.032-.064-.032-.07-.024-.064-.031-.087-.024-.08-.024-.079-.024-.08-.016-.078-.016-.08-.016-.079-.008-.08-.008-.07-.008h-.175l-.087.016-.08.016-.07.016-.064.032-.055.032-.072.063-.047.072-.032.072-.008.08v.015l.008.104.04.087.032.048.055.056.071.04.064.04.079.031.087.032.095.032.063.016.064.023.071.016.072.024.079.016.087.024.087.024.087.024.087.016.08.024.087.024.08.016.078.023.08.024.07.024.08.024.071.024.072.024.087.031.08.04.078.032.08.04.071.04.071.04.063.039.064.048.063.04.063.055.064.056.055.064.056.055.047.064.048.072.04.063.04.072.031.064.024.071.023.072.016.071.016.08.016.08.008.08.008.087v.191l-.008.087Zm-5.557 1.59H27.456V30.488H32.036V31.802H28.969V32.748H31.727V33.98H28.969V34.968H32.076v1.313h-.08Zm-5.789 0H24.757V32.856l-.04.064-.047.072-.04.063-.047.064-.04.072-.047.064-.04.063-.04.072-.047.064-.04.063-.047.064-.04.072-.047.064-.04.064-.04.071-.047.064-.04.064-.047.072-.04.063-.047.064-.04.072-.04.064-.047.063-.04.072-.047.064-.04.064-.047.064-.04.071-.04.064-.047.064-.04.072-.047.063-.04.064-.047.072-.04.064h-.032l-.047-.072-.04-.064-.048-.072-.04-.063-.047-.072-.04-.064-.047-.072-.04-.063-.047-.072-.04-.064-.047-.072-.04-.063-.047-.072-.04-.064-.047-.072-.04-.064-.047-.071-.048-.064-.04-.072-.047-.064-.04-.071-.047-.064-.04-.072-.047-.064-.04-.071-.048-.064-.04-.072-.047-.064-.04-.071-.047-.064-.04-.072-.047-.063-.04-.072-.047-.064V36.28h-1.506V30.487H21.85l.039.064.04.072.047.063.04.072.04.063.039.072.04.063.047.072.04.064.04.063.039.071.04.064.047.072.04.063.04.071.039.064.048.064.04.071.039.064.04.071.039.064.048.071.04.064.039.071.04.063.039.064.048.072.04.063.039.072.04.063.039.072.048.064.04.07.039.064.04-.063.04-.071.047-.064.04-.072.039-.063.04-.072.047-.063.04-.072.04-.063.039-.064.047-.071.04-.064.04-.071.04-.064.047-.071.04-.064.04-.071.038-.064.04-.064.048-.07.04-.064.04-.072.039-.064.047-.07.04-.064.04-.064.04-.072.046-.063.04-.072.04-.063.04-.072.047-.063.04-.072.04-.063H26.285V36.28h-.079Zm-9.193-2.387-.024-.072-.031-.08-.032-.07-.024-.073-.031-.072-.032-.08-.024-.071-.032-.072-.031-.072-.024-.072-.032-.08-.023-.07-.032-.073-.032-.072-.024-.071-.031-.08-.032-.072-.024-.072-.032-.072-.031-.08-.024-.071-.032-.072-.031.072-.024.072-.032.08-.032.072-.023.071-.032.072-.032.08-.031.071-.024.072-.032.072-.032.072-.023.08-.032.072-.032.071-.024.072-.031.072-.032.08-.032.071-.023.072-.032.072-.032.08-.024.071-.031.072H17.046l-.032-.072Zm2.488 2.388h-1.554l-.03-.072-.024-.072-.032-.071-.032-.08-.024-.071-.031-.072-.032-.071-.024-.072-.031-.072-.032-.071-.024-.072-.032-.08-.031-.071-.024-.072-.032-.071H15.239l-.031.071-.024.072-.032.072-.032.08-.023.07-.032.072-.032.072-.024.072-.031.071-.032.072-.024.071-.031.08-.032.071-.024.072-.032.072H13.203l.031-.072.032-.072.032-.071.031-.08.024-.071.032-.072.032-.071.031-.072.032-.072.032-.08.031-.07.032-.072.024-.072.032-.072.031-.071.032-.08.032-.072.031-.071.032-.072.032-.071.024-.072.031-.08.032-.071.032-.072.031-.072.032-.071.032-.072.031-.08.024-.071.032-.072.032-.071.031-.072.032-.072.032-.08.031-.07.032-.072.024-.072.032-.072.031-.071.032-.08.032-.072.031-.071.032-.072.032-.071.024-.072.031-.071.032-.08.032-.071.031-.072.032-.072.032-.071.031-.072.024-.08.032-.071.032-.072.031-.071.032-.072.032-.072.031-.08.032-.07.024-.072.032-.072.031-.072.032-.071.032-.08.031-.072.032-.071.032-.072.023-.071.032-.072.032-.08.032-.071.031-.072.032-.072.032-.071.031-.072.024-.08.032-.071.032-.072.031-.071H17.125l.032.071.032.072.03.072.033.08.024.07.03.072.033.072.032.072.031.071.032.08.032.072.031.071.024.072.032.072.032.071.031.08.032.071.032.072.032.072.03.071.025.072.032.08.03.071.033.072.032.071.031.072.032.072.031.08.024.07.032.072.032.072.032.072.031.071.032.08.032.071.031.072.024.071.032.072.031.072.032.071.032.08.031.071.032.072.032.072.024.071.031.072.032.08.032.071.031.072.032.071.032.072.032.072.023.08.032.07.032.072.031.072.032.072.032.071.031.08.032.072.024.071.031.072.032.071.032.072.032.08.031.071.032.072.032.072.024.071.031.072.032.08.032.071.031.072.032.071.031.072.032.071.024.08.032.071.031.072.032.072h-.079Zm-6.941-.74-.064.048-.055.04-.064.047-.063.04-.063.048-.064.04-.063.04-.072.039-.071.04-.071.04-.072.031-.07.04-.08.032-.071.031-.08.032-.07.032-.072.024-.072.024-.07.024-.08.024-.071.024-.08.016-.07.015-.08.016-.08.016-.079.008-.087.008-.079.008-.087.008-.08.008-.087.008h-.341l-.079-.008-.087-.008-.079-.008-.079-.008-.08-.008-.079-.016-.079-.016-.07-.016-.08-.016-.072-.023-.079-.016-.071-.024-.072-.032-.07-.024-.08-.032-.071-.032-.072-.031-.07-.032-.072-.04-.064-.04-.07-.04-.064-.039-.064-.04-.063-.048-.063-.047-.064-.048-.055-.048-.056-.047-.055-.056-.056-.048-.055-.056-.056-.055-.047-.056-.048-.064-.047-.055-.04-.064-.048-.064-.04-.063-.039-.064-.04-.072-.04-.063-.03-.072-.032-.072-.032-.071-.032-.072-.023-.063-.032-.072-.016-.072-.024-.072-.016-.079-.023-.072-.016-.08-.008-.07-.016-.08-.008-.072-.008-.08-.008-.08-.008-.079v-.263l.008-.087v-.08l.008-.08.008-.087.016-.079.008-.08.016-.071.023-.08.016-.08.024-.071.024-.08.024-.071.031-.08.032-.071.032-.072.032-.072.03-.071.04-.072.04-.064.04-.063.04-.064.04-.064.047-.063.047-.064.048-.064.047-.055.056-.056.047-.056.056-.055.055-.056.056-.048.063-.056.056-.047.063-.048.063-.04.064-.048.063-.04.063-.04.072-.04.071-.039.071-.04.072-.032.071-.031.08-.04.063-.024.079-.024.071-.032.071-.016.072-.023.08-.016.07-.024.08-.016.079-.008.08-.016.078-.008.08-.008.079-.008.08-.008H10.27l.088.008.087.008h.08l.078.008.087.016.072.008.08.016.078.016.072.016.071.015.071.017.072.023.071.016.063.024.072.024.071.032.071.032.072.031.071.04.071.032.064.04.07.04.064.04.072.04.063.047.063.04.064.048.063.047.064.056.063.048-.048.063-.055.056-.048.064-.055.064-.048.063-.047.056-.056.064-.047.063-.048.056-.055.064-.048.063-.055.064-.048.056-.047.063-.056.064-.047.064-.056.055-.047.064-.064-.048-.063-.055-.064-.04-.063-.048-.063-.04-.064-.04-.063-.04-.071-.04-.064-.03-.063-.033-.064-.024-.07-.023-.072-.024-.072-.016-.079-.016-.079-.016-.079-.008-.087-.008-.088-.008H10.01l-.079.008-.072.008-.079.016-.07.016-.072.024-.072.024-.07.031-.072.032-.064.04-.063.04-.063.04-.056.047-.055.048-.056.048-.047.055-.056.056-.047.064-.04.056-.04.063-.039.072-.04.064-.031.071-.024.072-.032.072-.024.079-.016.08-.015.07-.016.088-.008.08-.008.08v.183l.008.08.008.07.008.08.016.072.015.072.016.071.024.072.024.063.032.08.031.072.04.071.04.064.04.064.047.063.047.056.055.056.048.056.055.047.064.048.063.048.064.04.063.04.071.031.072.032.071.032.08.024.078.024.08.016.08.015.078.008.087.008h.182l.088-.008.087-.008.08-.008.078-.015.08-.016.079-.024.071-.016.071-.032.064-.032.071-.032.056-.031.063-.04v-.725H10.001v-1.161H12.616V35.494l-.055.047ZM10.012 17.38h3.435v-2.656h-3.434V9.3h3.57V6.644H7.096v19.171h6.542V23.16h-3.626v-5.78ZM34.61 17.955v4.327c0 .767-.355 1.123-1.09 1.123h-.546c-.763 0-1.117-.356-1.117-1.123V10.177c0-.767.354-1.122 1.117-1.122h.49c.736 0 1.091.355 1.091 1.122v3.753h2.861v-3.917c0-2.383-1.144-3.533-3.515-3.533h-1.418c-2.37 0-3.543 1.178-3.543 3.56v12.38c0 2.382 1.173 3.56 3.543 3.56h1.445c2.371 0 3.543-1.178 3.543-3.56v-4.465H34.61ZM24.483 25.815h2.916V6.645h-2.916v19.17ZM20.25 15.162c0 .767-.353 1.123-1.09 1.123h-1.198V9.219h1.199c.736 0 1.09.356 1.09 1.123v4.82Zm-.626-8.518h-4.579v19.171h2.917V18.86h1.662c2.371 0 3.543-1.178 3.543-3.56v-5.094c0-2.383-1.172-3.56-3.543-3.56Z" fill="#fff"/><path fill-rule="evenodd" clip-rule="evenodd" d="M13.976 43.15H30.67l-8.52 2.81-8.174-2.81Z" fill="#fff"/></g><defs><clipPath id="a"><path fill="#fff" transform="translate(.74)" d="M0 0h43.088v50H0z"/></clipPath></defs></svg>