<?xml version="1.0" encoding="utf-8"?>
<!-- Generator: Adobe Illustrator 26.0.0, SVG Export Plug-In . SVG Version: 6.00 Build 0)  -->
<svg version="1.1" id="Layer_1" xmlns="http://www.w3.org/2000/svg" xmlns:xlink="http://www.w3.org/1999/xlink" x="0px" y="0px"
	 viewBox="0 0 282 93.4" style="enable-background:new 0 0 282 93.4;" xml:space="preserve">
<g id="Layer_2_00000119839526411123479850000003962545751170045867_">
	<g id="new">
		<path d="M252.1,45.6c-2,0-3.6-1.6-3.6-3.6c0-2,1.6-3.6,3.6-3.6c2,0,3.6,1.6,3.6,3.6c0,0,0,0,0,0C255.7,44,254.1,45.6,252.1,45.6z
			 M252.1,38.8c-1.8,0-3.2,1.4-3.3,3.2c0,1.8,1.4,3.2,3.2,3.3c1.8,0,3.2-1.4,3.3-3.2c0,0,0,0,0,0C255.3,40.2,253.9,38.8,252.1,38.8z
			 M253.1,43.9l-1-1.6h-0.6v1.6H251V40h1.3c0.6,0,1.2,0.5,1.2,1.1c0,0,0,0,0,0c0,0.5-0.4,1-0.9,1.1l1,1.7H253.1z M252.2,40.4h-0.8
			v1.4h0.8c0.4,0.1,0.8-0.2,0.8-0.6c0.1-0.4-0.2-0.8-0.6-0.8C252.4,40.4,252.3,40.4,252.2,40.4L252.2,40.4z"/>
		<path d="M200.7,38.5c-0.1,0-0.2,0-1.2,0.1c-1.1,0-3.2,0.1-7.5,0.1h-5.2c-4.3,0-6.4,0-7.5-0.1c-1.1,0-1.1-0.1-1.2-0.1
			c-0.5,0-0.5,0.3-0.5,1.3v3.8c0,0.2,0,0.7,0.4,0.7s0.5-0.2,1.3-1.7c0.5-1.1,1.5-2.6,7.1-2.6c0.6,0,0.8,0.2,0.8,1.1v19.2
			c0,1.6,0,2.7-2.1,2.9c-0.9,0.1-1.4,0.1-1.4,0.7s0.5,0.6,0.9,0.6c0.8,0,4.1-0.2,4.8-0.2c1.4,0,3.5,0.2,4.9,0.2c0.3,0,0.9,0,0.9-0.6
			c0-0.6-0.6-0.7-1.5-0.7c-2.1-0.1-2.1-1.2-2.1-2.9V41.3c0-1.1,0.1-1.3,1.3-1.4c5.2,0.1,6.1,1.6,6.6,2.6c0.7,1.5,0.8,1.7,1.3,1.7
			s0.4-0.5,0.4-0.7v-3.8C201.2,38.8,201.2,38.5,200.7,38.5z"/>
		<path d="M156,57.9c-0.4,0-0.5,0.2-1.2,1.6c-1.8,3.5-4.4,3.5-6.2,3.5c-3.5,0-4.3-0.5-4.3-3.4v-7.1c0-1.2,0.3-1.2,2.3-1.2
			c3.4,0,4.6,0,5.4,3.2c0.2,0.8,0.5,1,0.8,1c0.5,0,0.5-0.6,0.5-0.8c0-0.3-0.1-1.8-0.1-2.1c0-0.9,0.3-5.2,0.3-5.7
			c0-0.5-0.2-0.6-0.5-0.6c-0.2,0-0.4,0.1-0.6,0.6c-0.7,2.2-1.1,3.1-5.7,3.1c-2.4,0-2.4-0.3-2.4-1.7v-6c0-2.1,0.2-2.3,2.2-2.3
			c5.9,0,6.9,1.6,7.4,2.6c0.7,1.5,0.8,1.7,1.3,1.7s0.4-0.5,0.4-0.7v-3.8c0-0.9,0-1.3-0.5-1.3c-0.1,0-0.2,0-1.2,0.1
			c-1.1,0-3.2,0.1-7.5,0.1h-2c-3.5,0-5.3,0-6.2-0.1c-0.3,0-0.7,0-1-0.1c-0.3,0-0.8,0-0.8,0.6c0,0.6,0.6,0.7,1.5,0.7
			c2.1,0.1,2.1,1.2,2.1,2.9v17.5c0,1.7,0,2.8-2.1,2.9c-0.9,0.1-1.5,0.1-1.5,0.7s0.5,0.6,0.9,0.6c0.3,0,0.6,0,1.3-0.1
			c0.7,0,1.7-0.1,3.4-0.1h0.5c0.3,0,2.2,0,4.6,0.1c2.4,0,5.3,0.1,7.4,0.1c1.2,0,1.6-0.5,1.7-1.2c0.1-1.5,0.6-4.2,0.6-4.7
			C156.5,58.2,156.4,57.9,156,57.9z"/>
		<path d="M223.5,57.9c-0.4,0-0.5,0.2-1.2,1.6c-1.8,3.5-4.4,3.5-6.2,3.5c-3.5,0-4.3-0.5-4.3-3.4v-7.1c0-1.2,0.3-1.2,2.3-1.2
			c3.4,0,4.6,0,5.4,3.2c0.2,0.8,0.5,1,0.8,1c0.5,0,0.5-0.6,0.5-0.8c0-0.3-0.1-1.8-0.1-2.1c0-0.9,0.3-5.2,0.3-5.7
			c0-0.5-0.2-0.6-0.5-0.6c-0.2,0-0.4,0.1-0.6,0.6c-0.7,2.2-1.1,3.1-5.7,3.1c-2.4,0-2.4-0.3-2.4-1.7v-6c0-2.1,0.2-2.3,2.2-2.3
			c5.9,0,6.9,1.6,7.4,2.6c0.7,1.5,0.8,1.7,1.3,1.7s0.4-0.5,0.4-0.7v-3.8c0-0.9,0-1.3-0.5-1.3c-0.1,0-0.2,0-1.2,0.1
			c-1.1,0-3.2,0.1-7.5,0.1h-2c-3.5,0-5.3,0-6.2-0.1c-0.3,0-0.7,0-1-0.1c-0.3,0-0.8,0-0.8,0.6c0,0.6,0.6,0.7,1.5,0.7
			c2.1,0.1,2.1,1.2,2.1,2.9v17.5c0,1.7,0,2.8-2.1,2.9c-0.9,0.1-1.5,0.1-1.5,0.7s0.5,0.6,0.9,0.6c0.3,0,0.6,0,1.3-0.1
			c0.7,0,1.7-0.1,3.4-0.1h0.5c0.3,0,2.2,0,4.6,0.1c2.4,0,5.3,0.1,7.4,0.1c1.2,0,1.6-0.5,1.7-1.2c0.1-1.5,0.6-4.2,0.6-4.7
			C224,58.2,223.9,57.9,223.5,57.9z"/>
		<path d="M169,48.5c-3.4-1.4-5.8-2.4-5.8-5.4c0-1.6,1.3-4,4.6-4c3.5,0,4.3,2.3,4.8,4c0.4,1.3,0.6,1.6,1,1.6c0.6,0,0.6-0.3,0.6-1.3
			c0-3.7,0-4.1-0.5-4.4c-0.6-0.3-3.1-1-5.5-1c-5.4,0-8.3,3.4-8.3,7.3c0,4.5,3.3,6.1,6.8,7.6c3,1.4,5.9,3,5.9,6.3
			c0,3.4-3.3,4.6-5.1,4.6c-3,0-5.9-2.5-6.7-6.2c-0.1-0.4-0.1-0.8-0.5-0.8c-0.5,0-0.5,0.6-0.5,0.8c0,1.3,0.1,2.6,0.2,3.9
			c0.1,1.1,0.3,1.9,0.7,2.2c0.8,0.5,2.8,1.4,6.1,1.4c5.6,0,9.1-3.9,9.1-8.6C175.8,51.6,171.4,49.5,169,48.5z"/>
		<path d="M69.6,38c-8.1,0-14.2,5.8-14.2,13.4c0,8.1,6.8,13.5,14.1,13.5c7.1,0,14-5.7,14-13.9C83.5,43.8,77.4,38,69.6,38z
			 M69.8,63.8c-5.6,0-9.5-6.5-9.5-13.3c0-6,3.7-11.4,8.8-11.4c6.6,0,9.5,7,9.5,12C78.6,57.3,75.6,63.8,69.8,63.8z"/>
		<path d="M52.7,28.4c-0.6,0.1-1.2,0.1-1.7,0.1c-1.6,0.1-4.7,0.1-10.9,0.1h-1.3c-5.9,0-8.1-0.1-9.6-0.1c-0.6,0-1.1,0-1.7-0.1
			c-0.4,0-1.2,0-1.2,0.8c0,0.8,0.9,0.9,2.2,1c3,0.2,3,1.8,3,4.2v24.8c0,2,0,3.4-2.5,3.5c-1.1,0.1-1.8,0.2-1.8,0.9s0.7,0.8,1.1,0.8
			c1,0,5.2-0.2,6.1-0.2c1.7,0,4.4,0.2,6.1,0.2c0.4,0,1.1,0,1.1-0.8c0-0.8-0.7-0.8-1.8-0.9c-2.5-0.2-2.5-1.5-2.5-3.6V50
			c0-1.7,0-2.4,1-2.6c0.6-0.2,3.4-0.2,5.1-0.2c1.5,0,5.3,0,6.2,3.2c0.1,0.3,0.5,1.8,0.7,2.3c0.1,0.3,0.3,1,1,1
			c0.7,0,0.7-0.7,0.7-1.1l-0.2-2.8c-0.1-1.4-0.1-2.4-0.1-2.9c0-0.9,0.2-5,0.2-5.8c0-0.6-0.2-1-0.7-1c-0.5,0-0.8,0.5-1,1
			c-0.8,3.1-1.6,4.4-6.5,4.4c-0.9,0-4.4,0-5.3-0.1c-0.8-0.1-1-0.2-1-3.4v-8.4c0-2.8,1-2.9,3-2.9c9.3,0,10.1,1.3,11.9,5.3
			c0.2,0.5,0.5,1.2,1.1,1.2s0.7-1,0.7-1.1v-6.3C53.7,28.7,53.7,28.4,52.7,28.4z"/>
		<path d="M107.7,63.2c-1.2-0.2-1.7-1.2-2.6-2.6l-4-7.1c-1-1.7-1.5-2-2-2.3c1.4-0.3,5.7-1.3,5.7-6.1c0-1.5-0.6-6.5-7.9-6.5
			c-1.2,0-6.7,0.2-7.9,0.2c-0.5,0-2.5-0.2-2.9-0.2c-1.4,0-1.5,0-1.5,0.6c0,0.6,0.6,0.6,1.5,0.7c2,0.1,2,1.2,2,2.9v17.5
			c0,1.7,0,2.8-2,3c-0.9,0-1.5,0.1-1.5,0.7s0.5,0.6,0.9,0.6c0.7,0,4.1-0.2,4.8-0.2c0.2,0,4.2,0.2,5,0.2c0.3,0,0.9,0,0.9-0.5
			s-0.6-0.7-1.5-0.7c-2.1-0.1-2.1-1.2-2.1-3v-7.4c0-0.7,0.1-0.9,0.8-0.9c1.9,0,2.1,0.2,3,2l5,9.4c0.5,0.9,0.6,1.2,1.4,1.2h5.4
			c0.3,0,0.7-0.1,0.7-0.5C108.7,63.5,108.5,63.3,107.7,63.2z M94.5,50.7c-2.1,0-2.1-0.1-2.1-1.5v-6.9c0-1.6,0-2.6,2-2.6
			c5.1,0,5.7,4.4,5.7,5.9C100.1,50.7,96,50.7,94.5,50.7z"/>
		<path d="M133.6,63.2c-1.2-0.2-1.7-1.2-2.6-2.6l-4-7.1c-1-1.7-1.5-2-2-2.3c1.4-0.3,5.7-1.3,5.7-6.1c0-1.5-0.6-6.5-7.9-6.5
			c-1.2,0-6.7,0.2-7.9,0.2c-0.5,0-2.5-0.2-2.9-0.2c-1.4,0-1.5,0-1.5,0.6c0,0.6,0.6,0.6,1.5,0.7c2,0.1,2,1.2,2,2.9v17.5
			c0,1.7,0,2.8-2,3c-0.9,0-1.5,0.1-1.5,0.7s0.5,0.6,0.9,0.6c0.7,0,4.1-0.2,4.8-0.2c0.2,0,4.2,0.2,5,0.2c0.3,0,0.9,0,0.9-0.5
			s-0.6-0.7-1.5-0.7c-2.1-0.1-2.1-1.2-2.1-3v-7.4c0-0.7,0.1-0.9,0.8-0.9c1.9,0,2.1,0.2,3,2l5,9.4c0.5,0.9,0.6,1.2,1.4,1.2h5.4
			c0.3,0,0.7-0.1,0.7-0.5C134.7,63.5,134.5,63.3,133.6,63.2z M120.5,50.7c-2.1,0-2.1-0.1-2.1-1.5v-6.9c0-1.6,0-2.6,2-2.6
			c5.1,0,5.7,4.4,5.7,5.9C126,50.7,122,50.7,120.5,50.7z"/>
		<path d="M249.5,63.2c-1.2-0.2-1.7-1.2-2.6-2.6l-4-7.1c-1-1.7-1.5-2-2-2.3c1.4-0.3,5.7-1.3,5.7-6.1c0-1.5-0.6-6.5-7.9-6.5
			c-1.2,0-6.7,0.2-7.9,0.2c-0.5,0-2.5-0.2-2.9-0.2c-1.4,0-1.5,0-1.5,0.6c0,0.6,0.6,0.6,1.5,0.7c2,0.1,2,1.2,2,2.9v17.5
			c0,1.7,0,2.8-2,3c-0.9,0-1.5,0.1-1.5,0.7s0.5,0.6,0.9,0.6c0.7,0,4.1-0.2,4.8-0.2c0.2,0,4.2,0.2,5,0.2c0.3,0,0.9,0,0.9-0.5
			s-0.6-0.7-1.5-0.7c-2.1-0.1-2.1-1.2-2.1-3v-7.4c0-0.7,0.1-0.9,0.8-0.9c1.9,0,2.1,0.2,3,2l5,9.4c0.5,0.9,0.6,1.2,1.4,1.2h5.4
			c0.3,0,0.7-0.1,0.7-0.5C250.6,63.5,250.4,63.3,249.5,63.2z M236.3,50.7c-2.1,0-2.1-0.1-2.1-1.5v-6.9c0-1.6,0-2.6,2-2.6
			c5.1,0,5.7,4.4,5.7,5.9C241.9,50.7,237.8,50.7,236.3,50.7z"/>
	</g>
</g>
</svg>
