<svg xmlns="http://www.w3.org/2000/svg" width="381.36" height="320"><defs><style>.cls-2{fill:#ad911a}.cls-3{fill:#002856}</style></defs><g id="Layer_2" data-name="Layer 2"><g id="Layer_1-2" data-name="Layer 1"><path style="fill:none" d="M.16 0h381.2v320H.16z"/><path class="cls-2" d="M99.36 279.68c-11.68-11-16.48-15.84-21.28-21 2.48-3.52 8.88-13.84 8.48-27.12C86.24 219 83.92 207 81.44 195c-8.32 10.76-14.32 24-14.32 36.52a57.5 57.5 0 0 0 2.4 17.68 89.32 89.32 0 0 1-9.28-12.56 156.87 156.87 0 0 1-10.72-21.76A49.37 49.37 0 0 0 66.24 190c3.52-12.56 5.12-25.28 6.64-37.92C62.32 160 53 171.12 49.12 183.52c-3 9.44-3.52 16.4-3.2 21.28a171.75 171.75 0 0 1-8-40.64c2.24-.88 13.92-3.44 21.36-15.84 6.32-10.56 10.16-23.92 14.8-35.12-10.88 4.24-21.6 11.8-28.16 22.08-5.28 8.32-7.6 14.8-8.56 19.44a203.93 203.93 0 0 1 3.92-45.2c2-.24 13.68-2.08 24.08-13.2 8.64-9.2 16-19.6 23.28-30-11.44 1.44-23.76 4-32.56 13C49.52 86 46 94 43.84 98.4A221.17 221.17 0 0 1 56.16 63a64.8 64.8 0 0 0 10.24-8.52C80 40.24 87.84 20.64 89.12 2.16c-9.68 8.32-20.72 14.08-28 24.4-4.64 6.56-8.56 19.28-8.72 28.16a23.05 23.05 0 0 0 .88 6.28 243.87 243.87 0 0 0-10.72 28.8 66.28 66.28 0 0 0-14.4-47C24.8 55 21.44 67.6 21.52 79.84c.08 7.76 2 18.48 7.76 24.72 2.64 2.88 8.08 5.28 8.08 5.28a3.28 3.28 0 0 0 .32-.72 204.32 204.32 0 0 0-4.08 34.08 58.67 58.67 0 0 0-24.8-35.36c-.32 12-.64 24.16 2.4 35.12 1.92 7 6.4 16.16 13.52 20.24 3.28 1.92 9.2 2.64 9.2 2.64l.08-.48a178.92 178.92 0 0 0 5.2 31.2c-8.56-13.92-23-23.44-39.2-27.2 3.52 11.92 7.12 24 13.92 33.76 4.4 6.16 12.24 13.68 21.44 15.28 4.16.72 10.8-.48 11-.56a156.22 156.22 0 0 0 10.48 21c1.52 2.56 3.68 5.76 6.16 9.2-13.2-11.44-32.24-16-51.12-13.84 7.28 9.6 14.72 19.44 24.72 25.92 6.32 4.16 16.72 8.32 26.48 6.72 4.48-.72 11-4.16 11-4.16s-.16-.32-.4-.88a248.06 248.06 0 0 0 25.36 27Z"/><path class="cls-3" d="M121.44 109.52v.16c0 6.16-4.64 8.64-10.16 8.64h-4.72v11.84H103V101h8.24c5.64 0 10.2 2.44 10.2 8.52Zm-3.52.16v-.16c0-4.08-2.48-5.68-6.4-5.68h-5v11.6h5c4.16 0 6.4-2 6.4-5.76ZM122.48 119.68v-.32c0-6.48 4.16-11 10-11 5 0 9.52 3 9.52 10.56v1.12h-16c.16 4.88 2.48 7.52 6.88 7.52 3.28 0 5.2-1.2 5.68-3.68h3.36c-.72 4.32-4.32 6.56-9.12 6.56-6.08.04-10.32-4.2-10.32-10.76Zm10-8.4c-3.44 0-5.76 2.32-6.32 6.16h12.4c-.32-4.44-2.64-6.16-6.08-6.16ZM145.12 119.68v-.32c0-6.48 4.08-11 10-11 5 0 9.52 3 9.52 10.56v1.12h-16c.16 4.88 2.48 7.52 6.88 7.52 3.28 0 5.2-1.2 5.68-3.68h3.36c-.72 4.32-4.24 6.56-9 6.56-6.12.04-10.44-4.2-10.44-10.76Zm10-8.4c-3.44 0-5.76 2.32-6.32 6.16h12.48c-.28-4.44-2.64-6.16-6.16-6.16ZM172.32 112.64a7.41 7.41 0 0 1 7-4.16v3.2c-4.32.16-7 1.52-7 6.8v11.68H169v-21.28h3.36ZM194.16 130.16h-3.52V101h3.52ZM202.48 112.24a7.3 7.3 0 0 1 6.8-3.76c4.4 0 7.52 2.4 7.52 8.56v13.12h-3.36V116.8c0-3.76-1.6-5.44-5-5.44a5.6 5.6 0 0 0-5.92 5.84v12.88h-3.36V108.8h3.36ZM219.6 123.6h3.28c.24 2.56 1.6 4.08 5 4.08 3.2 0 4.64-1.12 4.64-3.36s-1.68-3-5-3.6c-5.52-1-7.44-2.56-7.44-6.32 0-3.92 3.84-6 7.2-6 3.84 0 7.12 1.52 7.68 6.16h-3.28c-.48-2.32-1.76-3.36-4.48-3.36-2.48 0-4 1.2-4 3s1 2.72 5 3.36c4.4.8 7.52 1.76 7.52 6.32 0 3.84-2.64 6.48-7.84 6.48s-8.12-2.44-8.28-6.76ZM239 102.16a2.16 2.16 0 0 1 .4-1.2 1.87 1.87 0 0 1 1-.8 2.37 2.37 0 0 1 1.28-.16 2.28 2.28 0 0 1 1.12.64 3.14 3.14 0 0 1 .64 1.12 1.81 1.81 0 0 1-.16 1.28 2.35 2.35 0 0 1-.8 1 2.38 2.38 0 0 1-1.2.4 2.19 2.19 0 0 1-1.52-.64 2.26 2.26 0 0 1-.76-1.64Zm4 28h-3.4v-21.28h3.4ZM247.2 131.36h3.44c.48 2.48 2.56 3.68 6.16 3.68 4.16 0 6.88-2 6.88-6.56v-3.12a9 9 0 0 1-7.2 4c-5.6 0-9.68-4.24-9.68-10.08V119c0-5.76 4.08-10.56 9.92-10.56a7.72 7.72 0 0 1 4 .88 7.86 7.86 0 0 1 3 2.88v-3.4H267v19.92c0 6.16-4.24 9.2-10.16 9.2-6.28 0-9.08-2.92-9.64-6.56Zm16.56-12.24v-.32c0-4.8-2.64-7.52-6.72-7.52s-6.8 3.12-6.8 7.6v.32c0 4.64 3 7.44 6.56 7.44 4 0 6.96-2.8 6.96-7.52ZM275.68 112.24c1-2 3.36-3.76 6.88-3.76 4.4 0 7.52 2.4 7.52 8.56v13.12h-3.36V116.8c0-3.76-1.6-5.44-5-5.44a5.6 5.6 0 0 0-5.92 5.84v12.88h-3.4V98.56h3.36ZM295.52 124.8v-13.12h-3v-2.88h3V104h3.36v4.88h5v2.88h-5v12.8c0 2.08 1 3.12 2.64 3.12a7.68 7.68 0 0 0 2.64-.48v2.88a9.06 9.06 0 0 1-2.88.48c-3.92-.16-5.76-2.4-5.76-5.76ZM305.76 123.6H309c.24 2.56 1.6 4.08 5 4.08 3.2 0 4.64-1.12 4.64-3.36s-1.68-3-5-3.6c-5.52-1-7.44-2.56-7.44-6.32 0-3.92 3.84-6 7.2-6 3.84 0 7.12 1.52 7.68 6.16h-3.28c-.48-2.32-1.76-3.36-4.48-3.36-2.4 0-4 1.2-4 3s1 2.72 5 3.36c4.4.8 7.52 1.76 7.52 6.32 0 3.84-2.64 6.48-7.84 6.48s-8-2.44-8.24-6.76Z"/><path class="cls-2" d="M101.2 154.72v-.32c0-8.72 6-14.88 14.16-14.88 6.64 0 11.84 3.36 12.48 10.16h-5.52c-.64-3.84-2.8-5.84-7-5.84-5.12 0-8.48 4-8.48 10.48v.32c0 6.56 3.12 10.4 8.56 10.4 4 0 6.88-2 7.44-6.16h5.28c-.88 7-5.84 10.56-12.72 10.56-9.08.08-14.2-5.76-14.2-14.72ZM131.76 161.44v-13.68h5v13c0 3.2 1.36 4.72 4.16 4.72a4.74 4.74 0 0 0 5-5.12v-12.6h5V169h-5v-3.36c-1 2.08-3.28 3.76-6.8 3.76-4.12.12-7.36-2.28-7.36-7.96ZM154.4 162.48h4.6c.24 2.16 1.36 3.44 4.24 3.44 2.64 0 3.84-1 3.84-2.72s-1.44-2.4-4.56-3c-5.6-.88-7.68-2.48-7.68-6.48 0-4.32 4-6.4 8-6.4 4.32 0 7.84 1.6 8.32 6.4h-4.56c-.4-1.92-1.52-2.88-3.76-2.88s-3.36 1-3.36 2.56 1 2.16 4.4 2.72c5 .8 8 2 8 6.56 0 4.32-3 6.8-8.48 6.8s-8.76-2.48-9-7ZM176.32 163.12v-11.68h-2.88v-3.68h2.88V143h5v4.72H186v3.68h-4.72v11.2c0 1.84.88 2.72 2.48 2.72a6.31 6.31 0 0 0 2.4-.4v3.92a9.56 9.56 0 0 1-3.36.56c-4.24.04-6.48-2.28-6.48-6.28ZM187.84 158.64v-.32c0-6.64 4.72-11 11-11s11 4.32 11 10.88v.32c0 6.64-4.72 11-11 11s-11-4.4-11-10.88Zm16.8-.08v-.24c0-4.4-2.24-7.12-5.84-7.12s-5.84 2.64-5.84 7v.32c0 4.32 2.16 7.12 5.84 7.12s5.84-2.64 5.84-7.08ZM218.32 151a7.39 7.39 0 0 1 2.72-2.72 7.73 7.73 0 0 1 3.76-1 5.93 5.93 0 0 1 6 3.84 9 9 0 0 1 3.12-2.88 8.08 8.08 0 0 1 4.08-1c3.92 0 7.12 2.4 7.12 8.24V169h-5v-13.2c0-3.12-1.36-4.48-3.76-4.48a4.53 4.53 0 0 0-4.72 4.88V169h-5v-13.2c0-3.12-1.36-4.48-3.76-4.48a4.57 4.57 0 0 0-4.72 4.88V169h-5v-21.32h5V151ZM248.8 158.64v-.32c0-6.64 4.56-11 10.56-11 5.28 0 10.08 3.12 10.08 10.72v1.44h-15.6c.16 4 2.24 6.32 5.84 6.32 3 0 4.48-1.2 4.88-3.28h4.8c-.72 4.48-4.32 7-9.76 7-6.32 0-10.8-4.16-10.8-10.88Zm10.56-7.76c-3 0-5 2-5.44 5.28h10.64c-.24-3.6-2.08-5.28-5.2-5.28ZM278.24 151.76a7.16 7.16 0 0 1 7-4.32V152c-4.32.08-7 1.44-7 5.92V169h-5v-21.24h5ZM287.12 162.48h4.64c.24 2.16 1.36 3.44 4.24 3.44 2.64 0 3.84-1 3.84-2.72s-1.44-2.4-4.56-3c-5.6-.88-7.68-2.48-7.68-6.48 0-4.32 4-6.4 8-6.4 4.4 0 7.84 1.6 8.32 6.4h-4.56c-.4-1.92-1.44-2.88-3.76-2.88-2.08 0-3.36 1-3.36 2.56s1 2.16 4.4 2.72c5 .8 8 2 8 6.56 0 4.32-3 6.8-8.48 6.8s-8.8-2.48-9.04-7ZM309.92 145.12a2.61 2.61 0 0 1-2.92-2.72 2.82 2.82 0 0 1 .24-1.12 3.55 3.55 0 0 1 .64-.88 1.92 1.92 0 0 1 1-.56 2.54 2.54 0 0 1 1.12-.16 3.18 3.18 0 0 1 3.2 3.44v.64c0 3.68-2.24 5.6-5.92 5.68v-2.24c1.72-.2 2.64-.88 2.64-2.08ZM101.2 195.44v-.32c0-8.8 6-14.88 14.16-14.88 6.64 0 11.84 3.36 12.48 10.16h-5.52c-.64-3.84-2.8-5.84-7-5.84-5.12 0-8.48 4-8.48 10.48v.32c0 6.56 3.12 10.4 8.56 10.4 4 0 6.88-2 7.44-6.16h5.28c-.88 7-5.84 10.56-12.72 10.56-9.08.08-14.2-5.76-14.2-14.72ZM136.88 191.92a7.34 7.34 0 0 1 6.88-3.84c4.24 0 7.28 2.48 7.28 8.32v13.44h-5v-13c0-3.2-1.28-4.72-4.24-4.72a4.72 4.72 0 0 0-5 5.12v12.56h-5v-31.2h5v13.28ZM154.64 199.36V199c0-6.64 4.72-11 11-11a10.46 10.46 0 0 1 10.88 10.88v.32c0 6.64-4.72 11-11 11s-10.88-4.36-10.88-10.84Zm16.8-.08V199c0-4.4-2.24-7.12-5.84-7.12s-5.84 2.64-5.84 7v.32c0 4.32 2.16 7.12 5.84 7.12s5.84-2.64 5.84-7.04ZM179.68 182.16a4 4 0 0 1 .4-1.68 2.91 2.91 0 0 1 1.28-1.12 3.09 3.09 0 0 1 1.68-.24 2.9 2.9 0 0 1 2.32 2.32 2.41 2.41 0 0 1-.16 1.68 2.75 2.75 0 0 1-2.72 1.84 5.4 5.4 0 0 1-1.12-.16 1.86 1.86 0 0 1-1-.64 2.88 2.88 0 0 1-.64-1c.04-.16-.04-.6-.04-1Zm5.52 27.68h-5v-21.28h5ZM188.8 199.44v-.32c0-6.8 4.8-11 10.72-11 4.72 0 9.2 2.08 9.76 8h-4.8c-.4-2.88-2.32-4-4.88-4-3.36 0-5.76 2.64-5.76 7v.32c0 4.64 2.24 7.12 5.84 7.12a4.78 4.78 0 0 0 5.12-4.56h4.56c-.4 4.88-4.08 8.32-9.84 8.32-6.08-.08-10.72-4.08-10.72-10.88ZM211.76 199.36V199c0-6.64 4.56-11 10.56-11 5.28 0 10.08 3.12 10.08 10.72v1.44h-15.6c.16 4 2.24 6.32 5.84 6.32 3 0 4.56-1.2 4.88-3.28h4.72c-.72 4.48-4.32 7-9.76 7-6.16.04-10.72-4.12-10.72-10.84Zm10.64-7.68c-3 0-5 2-5.44 5.28h10.64c-.32-3.68-2.16-5.28-5.2-5.28ZM260.08 188.4c0-3.28-1.92-5.2-5.2-5.2s-5.6 1.92-6.16 6.48h-3.28c.48-5.68 3.92-9.36 9.44-9.36 5.36 0 8.8 3.2 8.8 8.16 0 3.6-2.24 7.12-5.84 10.56l-8 7.84h14.08v2.88H244.4V209l11.6-12.2c2.56-2.8 4.08-5.44 4.08-8.4ZM267.52 196.08v-1.6c0-8.64 4.32-14.16 11.52-14.16s11.36 5.76 11.36 14.08v1.6c0 8.48-4.16 14.16-11.28 14.16s-11.6-5.6-11.6-14.08Zm19.2-.08v-1.68c0-6.8-2.88-11.2-7.76-11.2s-7.84 4.08-7.84 11.28v1.6c0 7.36 3.12 11.2 7.92 11.2 5.12.08 7.68-3.84 7.68-11.2ZM308.56 188.4c0-3.28-1.92-5.2-5.2-5.2s-5.6 1.92-6.16 6.48h-3.28c.48-5.68 3.92-9.36 9.44-9.36 5.36 0 8.8 3.2 8.8 8.16 0 3.6-2.32 7.12-5.84 10.56l-8 7.84h14.08v2.88h-19.52V209l11.6-12.16c2.52-2.84 4.08-5.48 4.08-8.44Z"/><path class="cls-3" d="m210.88 65-.32 3.84H209a2.93 2.93 0 0 0-1.44.32 6.11 6.11 0 0 0-1.28.88 4.3 4.3 0 0 0-.8 1.28 4.66 4.66 0 0 0-.24 1.52v8.64h-4.4V65H205l.08 2a4.82 4.82 0 0 1 4.32-2ZM180.32 81.36h-4.4v-8.64c0-1.76-.16-4.08-2.72-4.08s-3.44 1.76-3.44 3.84v8.88h-4.4V65h4.08l.08 2.08a6.25 6.25 0 0 1 2.16-1.92 5.68 5.68 0 0 1 2.8-.56c4.4 0 5.84 3.2 5.84 6.48ZM163.52 77.52l-.32 3.68a13.9 13.9 0 0 1-3.12.4c-4.16 0-5.36-1.92-5.36-5.76V60.4h4.4V65h4.4l-.32 3.84h-4.08v6.76c0 1.52.4 2.4 2 2.4a8.53 8.53 0 0 0 2.4-.48M153.28 65l-.28 3.88h-1.2a2.93 2.93 0 0 0-1.44.32 2.62 2.62 0 0 0-1.2.88 4.3 4.3 0 0 0-.8 1.28 4.66 4.66 0 0 0-.24 1.52v8.64h-4.4V65h4.16l.08 2a4.82 4.82 0 0 1 4.32-2ZM123.76 79.52a18.8 18.8 0 0 1-9.92 2.4c-7.36-.24-12.56-4.72-12.56-12.4s5.28-12.52 12.56-12.64a13.57 13.57 0 0 1 9.52 3.12l-3.12 3.12a9.33 9.33 0 0 0-6.72-2c-4.56.24-7.36 3.52-7.36 8.08-.08 5 3 8.32 7.68 8.48a11.52 11.52 0 0 0 5.2-.88v-5h-5l.32-4.16h9.28v11.88ZM194.4 71.36a3.77 3.77 0 0 0-.32-1.36 3.89 3.89 0 0 0-.88-1.12 2.52 2.52 0 0 0-1.2-.64 4.2 4.2 0 0 0-1.36-.16 3.77 3.77 0 0 0-2.56 1 4.05 4.05 0 0 0-1.36 2.4h7.68Zm4.4 3.36h-12.08a4.26 4.26 0 0 0 1.36 2.48 4 4 0 0 0 2.64 1 5.41 5.41 0 0 0 4.56-2l2.88 2.24a8.66 8.66 0 0 1-7.28 3.36 8.56 8.56 0 0 1-.16-17.12c5.2 0 8.08 3.2 8.08 8.8ZM136.56 74.24h-.64c-2.08 0-5.76.08-5.76 2.32 0 3 6.32 2.08 6.32-1.6v-.72Zm4.24-3.6v10.64H137l-.08-1.6a6.47 6.47 0 0 1-5.12 2c-3 0-5.84-1.44-5.84-5-.08-5.44 6.08-5.76 10-5.76h.8v-.24c0-1.76-1.2-2.8-3.44-2.8a6.18 6.18 0 0 0-4.32 1.8l-2.56-2.56a11 11 0 0 1 7.28-2.56c5 .08 7.12 2.4 7.12 6.08"/><path class="cls-2" d="M332.24 320a2 2 0 0 1-1.28-.48l-49.84-48.8a200.18 200.18 0 0 1-76.24 13.92c-46.08-.8-87.12-12.8-118.64-34.64l2.08-3c31 21.44 71.28 33.2 116.64 34a197.28 197.28 0 0 0 75.92-14 1.52 1.52 0 0 1 1-.08 1.91 1.91 0 0 1 .88.48l47.6 46.56-.08-75.36a2.34 2.34 0 0 1 .16-.72 1.24 1.24 0 0 1 .48-.64c30.16-25.76 46.8-59.44 46.8-94.8 0-31.6-13.52-62.4-38.16-87-33-33-81.84-51.84-134.24-51.84H205c-34.72.08-65.28 5.6-91 16.48C87.84 31.2 67.52 47.6 53.68 68.8l-3-2c14.24-21.76 35.12-38.64 62-50C138.72 5.76 169.76.08 205 0h.4c53.28 0 103.12 19.2 136.8 52.8 25.28 25.2 39.2 57 39.2 89.52 0 36.16-16.8 70.64-47.36 97l.08 78.8a2.34 2.34 0 0 1-.16.72 1.43 1.43 0 0 1-.4.56 2.43 2.43 0 0 1-.56.4 1.19 1.19 0 0 1-.72.16Z"/><path class="cls-2" d="M337.84 241.44h5.44v1.12h-2.08v6.24h-1.36v-6.24h-2.08v-1.12ZM348.08 246.48l1.92-5h1.84v7.36h-1.36v-5.6l-2.24 5.52h-.48l-2.24-5.52v5.52h-1.2v-7.36h1.84Z"/><text transform="translate(312.4 209.76)" style="font-size:43.11px;font-family:HelveticaNeue,Helvetica Neue;fill:#ad911a">1</text></g></g></svg>