<svg xmlns="http://www.w3.org/2000/svg" viewBox="0 0 447.87 304.74"><defs><style>.cls-8{fill:none}.cls-6,.cls-8{stroke-miterlimit:10}.cls-2{fill:#04afde}.cls-3{fill:#71d0e9}.cls-5{fill:#182931}.cls-6{fill:#04b1e0;stroke:#fff}.cls-7{fill:#71d2eb}.cls-8{stroke:#04afde;stroke-width:2px}</style></defs><g id="Layer_2" data-name="Layer 2"><g id="Layer_1-2" data-name="Layer 1"><rect x="14.73" y=".5" width="432.63" height="303.74" rx="8" style="stroke-miterlimit:10;stroke:#c1c9d0;fill:none"/><path class="cls-2" d="M299.15 107.73c1.77 23.71 8.2 57 14 71.46 3.82 9.53 18 22.65 36.57 34.09 18.6-11.43 32.75-24.56 36.57-34.09 5.81-14.51 12.24-47.75 14-71.46-33.48-16.27-47.11-17.58-50.58-17.58s-17.08 1.31-50.56 17.58Z"/><path class="cls-2" d="M412.89 94.11c-32.42-16.21-52.45-21.74-63.16-21.74S319 77.9 286.57 94.11a9.9 9.9 0 0 0-5.49 9.32c1.14 24.27 8.07 63.63 15.58 82.37 8.15 20.33 36.53 38.49 48.1 45.23a9.87 9.87 0 0 0 9.93 0c11.57-6.74 40-24.9 48.11-45.23 7.51-18.74 14.44-58.1 15.58-82.37a9.91 9.91 0 0 0-5.49-9.32Zm-17.31 88.79c-3 7.47-10.08 16-20.51 24.62a188.35 188.35 0 0 1-24.29 16.79 2.17 2.17 0 0 1-1 .28 2.14 2.14 0 0 1-1.05-.28 187 187 0 0 1-24.29-16.79c-10.43-8.64-17.52-17.15-20.51-24.62-7.31-18.24-14-57.2-15-79.83a2.13 2.13 0 0 1 1.2-2c12.58-6.29 43.58-20.92 59.68-20.92s47.1 14.63 59.68 20.92a2.13 2.13 0 0 1 1.2 2c-1.15 22.63-7.8 61.59-15.11 79.83Z"/><rect class="cls-3" x="324.88" y="120.4" width="49.7" height="28.85" rx="14.42"/><circle cx="360.15" cy="134.83" r="10.42" style="fill:#fff"/><path class="cls-3" d="M342.53 173.22c-4 0-7.07-2.64-7.07-7.47s3.09-7.46 7.07-7.46 7.06 2.61 7.06 7.46-3.12 7.47-7.06 7.47Zm0-11.5c-2 0-3 1.42-3 4s1.05 4 3 4 3-1.42 3-4-1.05-4-3-4ZM364 173h-3.3l-5.25-7.64h-.08V173h-3.95v-14.51h3.35l5.17 7.6h.11v-7.6H364Z"/><rect class="cls-5" y="11.76" width="118.59" height="118.59" rx="8"/><rect class="cls-5" x="128.95" y="11.76" width="118.59" height="118.59" rx="8"/><rect class="cls-5" y="174.94" width="118.59" height="118.59" rx="8"/><rect class="cls-5" x="129.36" y="174.94" width="118.59" height="118.59" rx="8"/><circle class="cls-6" cx="287.73" cy="152.37" r="3.06"/><path class="cls-7" d="M161.45 75.93c.33-7 .47-14.65 1.16-22.27.32-3.42 1.56-6.95 5.29-8.42a13.35 13.35 0 0 1 4.57-.64c3.82-.1 7.64 0 11.46-.11 4.78-.16 9.55-.64 14.33-.68a54.32 54.32 0 0 1 10 .82c3.81.7 5.46 3.78 5.87 7.26.47 3.91.44 7.88.54 11.83.16 6.12.31 12.25.34 18.38a47 47 0 0 1-.56 7.4 5.51 5.51 0 0 1-1.64 3 15.8 15.8 0 0 1-10.53 4.6c-5.13.14-10.25.45-15.37.69-4.41.21-8.82.58-13.23.56a13 13 0 0 1-10.16-5 8.3 8.3 0 0 1-1.36-4.36c-.34-4.17-.46-8.27-.71-13.06ZM190 57.44l21-.78a14.77 14.77 0 0 0 0-3c-.75-3.51-1-5.36-4.09-5.94a29.58 29.58 0 0 0-4.79-.49q-5.32-.1-10.65 0c-.52 0-1.45.71-1.47 1.12-.11 2.98 0 5.92 0 9.09Zm-3.13-.25v-9.13c-5 0-10-.15-15.07 0-4.3.17-7.33 4.9-6.18 9.09Zm10.5 27.7h-19.59v9.77l19.54-.77Zm-8.67-3.52h23c-.17-2.81-.34-5.46-.51-8.2h-21.95c-.19 2.63-.37 5.22-.59 8.2ZM177.42 70c6.61 0 12.92 0 19.22-.07.54 0 1.44-1 1.51-1.64.28-2.52.3-5.06.42-7.57H178c-.22 3.13-.39 5.93-.58 9.28Zm-12.37 3.2v8.17h21V73.2Zm36.1-3.32h9.9V59.71l-9.17.73c-.26 3.3-.5 6.39-.73 9.44Zm-35.94.32 9.43-.46V61h-9.43Zm46.25 14.45-10.88.62v8.07c6.04 1.2 11.21-2.81 10.88-8.69Zm-46.08.4c-.69 6 2.27 9.53 7.74 9.59.45 0 1.29-.54 1.3-.85.1-2.87.06-5.75.06-8.74ZM84.77 226.66c-.21 3.79-.13 7.62-.69 11.36-1.32 8.78-6.34 15.24-13.56 20.1-3.14 2.12-6.38 4.1-9.64 6-1.82 1.07-3.58 1.51-5.78.18-6.57-3.95-12.7-8.34-17.39-14.51a17.93 17.93 0 0 1-3.45-10.16c-.26-6.8-.26-13.63-.34-20.49a12.3 12.3 0 0 0-.05-1.49c-.24-2.23.36-4 2.58-5 6.15-2.78 12.35-5.45 18.36-8.5 3.38-1.72 6.11-.61 9 .84 6.12 3.08 12.22 6.18 18.39 9.16 1.79.87 2.63 1.95 2.51 4-.16 2.81 0 5.64 0 8.46Zm-40 8.85c.78 2.37 1.22 5.55 2.8 8a39.11 39.11 0 0 0 7.43 8.12c3.2 2.75 3.38 2.53 6.89.06.41-.29.88-.5 1.31-.78 4.1-2.62 7.53-6.12 8.71-10.75 1.35-5.34 1.6-11 2.23-16.49 0-.42-.64-1.08-1.14-1.39-4.19-2.58-8.45-5.06-12.61-7.67-.9-.57-1.34-.81-2.43-.15A84 84 0 0 1 47 220.24c-1.82.75-2.32 1.5-2.28 3.26.13 3.78.07 7.56.07 12.01ZM37 217.7v2.46c.08 4.24.32 8.47.23 12.7-.1 4.47 0 8.88 2.29 12.86a34 34 0 0 0 3.9 5.48 46.3 46.3 0 0 0 12.33 9.53c1.07-3.85 1-4-1.9-6-.3-.21-.6-.42-.91-.62-5.64-3.79-9.51-8.88-10.58-15.63a69.28 69.28 0 0 1-.59-12.05c.09-3.86.23-7.43-4.77-8.73Zm21.91 44c4.15-2.7 8.08-5.07 11.8-7.72 6.56-4.67 9.86-11.19 10.3-19.2q.34-6.39.65-12.79c0-.22-.29-.45-.54-.83-1.2 1.46-3.72 1.28-3.91 3.68-.23 2.72-.32 5.45-.61 8.16-.6 5.47-1.21 11.08-5.29 15.18a38.13 38.13 0 0 1-9.3 7c-2.88 1.57-2.86 3.66-3.1 6.55Zm22.45-44.26L60.63 207l-.7.6c.4 1.43.35 3.57 1.29 4.19 4.63 3 9.51 5.71 14.34 8.43a2.24 2.24 0 0 0 1.78-.21c1.19-.65 2.29-1.44 4.02-2.54ZM57 206.84c-3.1 1.31-6.12 2.55-9.11 3.85s-5.9 2.6-9.14 4a17.36 17.36 0 0 1 3.18 2 2.72 2.72 0 0 0 3.65.62 67.27 67.27 0 0 1 8-4c3.19-1.05 3.98-3.13 3.42-6.47ZM51.52 87.09c-2.77 2.51-5.59 5-8.29 7.57a41.24 41.24 0 0 0-3.38 3.94c-.77 1-1.57 1.29-2.59.42-1.43-1.23-2.83-2.49-4.27-3.7a2.35 2.35 0 0 1-.35-3.58c2.88-3.64 5.76-7.28 8.84-10.74 1-1.11 1.3-1.63.55-3.09C37.25 68.6 37.52 59.36 44 51a20.16 20.16 0 0 1 15.4-8.37c6.87-.33 13.36 1 18.94 5a19.07 19.07 0 0 1 5.5 6.86c4.27 8.47 3.47 16.94-1 25.14-2 3.62-5.7 5.17-9 7.26s-6.69 2-10.45 2A34.06 34.06 0 0 1 54 87.7c-1-.3-2-.74-3-1.11ZM64.88 86l.05-.72c3.13 1 5.59-.49 8.13-1.83 4.06-2.15 7.67-4.82 8.6-9.57.72-3.67 1.46-7.55 1-11.19-.75-6-3.28-11.43-9.32-14a52.62 52.62 0 0 0-8.77-2.43c-5.8-1.36-10.84.42-15.21 4.17-7 6-8.5 16.31-5 24.6 1.86 4.38 4.75 7.39 9.36 8.55 3.7.85 7.44 1.56 11.16 2.42Zm-26.75 9.46 9.36-10.83-3.32-2.34-9.23 10.91Z"/><path class="cls-7" d="M61.56 50.43a19.25 19.25 0 0 1 11.27 2.94 11.72 11.72 0 0 1 6 9.58 22.71 22.71 0 0 1-2.12 11.24 13.38 13.38 0 0 1-13.41 7.37 20.41 20.41 0 0 1-13.41-7.47 12.35 12.35 0 0 1-2.34-10.17c1-5.65 3-10.8 9.08-12.83a24.92 24.92 0 0 1 4.93-.66ZM50.5 65.94c.4 2.73.68 5.62 3.28 7.43 1.84 1.29 3.86 2.31 5.69 3.6 4.44 3.12 12.66.51 14.4-4.74a31.72 31.72 0 0 0 1.78-7.62 9.67 9.67 0 0 0-5.21-8.68c-3.06-1.53-6.25-1.62-9.49-2a7.67 7.67 0 0 0-6.48 2.22c-2.76 2.57-3.59 6.05-3.97 9.79ZM180.54 206.12h15.86c2.72 0 5.15.24 7.31 2.48a98.34 98.34 0 0 0 11 9.92c2.37 1.82 2.55 3.73 2.32 6.32-.27 2.94-.06 5.93-.09 8.89 0 2.76-.19 5.52-.15 8.28a7.92 7.92 0 0 1-2.61 6.11c-4.2 4.08-8.26 8.31-12.36 12.5-1.61 1.64-3.46 2-5.77 1.89a123.07 123.07 0 0 0-14.5.13 12.55 12.55 0 0 1-11.67-5.17c-3-3.86-6.15-7.58-9.15-11.44a3.75 3.75 0 0 1-.5-2.23c.11-7 .19-13.93.51-20.88a6.27 6.27 0 0 1 1.79-3.71c3.52-3.65 7.48-6.9 10.76-10.74 2.11-2.47 4.31-3.19 7.25-2.35Zm-16.79 27.46c0 3.22-.05 6.43 0 9.65a4 4 0 0 0 .78 2.35c3.35 4 6.87 7.86 10.16 11.9a5.49 5.49 0 0 0 4.94 2.06c5.75-.12 11.52 0 17.27-.1a3.6 3.6 0 0 0 2.16-1c4.44-4.37 8.82-8.79 13.19-13.22a2.83 2.83 0 0 0 .88-1.59c.33-6.69.6-13.37.85-20.06a2.23 2.23 0 0 0-.48-1.53 514.06 514.06 0 0 0-9.93-9.29c-1.25-1.14-2.61-2.82-4.06-3-5.41-.6-10.89-.58-16.33-1-3.77-.28-6.88 0-9.43 3.6-2.14 3-5.38 5.29-8.13 7.9a5.39 5.39 0 0 0-2 4.7c.31 2.89.12 5.77.13 8.63Z"/><path class="cls-7" d="M194.9 234.55q3 3.38 5.9 6.73a1.77 1.77 0 0 1-.22 2.8 25.34 25.34 0 0 1-4.1 3.56c-.67.39-2.21 0-3-.6-2.22-1.63-4.26-3.53-6.61-5.52-2 2.07-3.78 4-5.63 5.83s-2.36 2-4.21.09c-.31-.31-.6-.65-.92-1-2.79-2.72-2.9-2.79-.83-6.09 1.34-2.13 3-4 4.91-6.43-1.42-1.3-3-2.82-4.61-4.19s-2.63-2.84-.52-4.73c1.14-1 2-2.37 3.2-3.31a2.44 2.44 0 0 1 2.19.27c2.05 1.49 4 3.12 5.94 4.78a1.8 1.8 0 0 0 2.79-.05c1.61-1.5 3.3-2.91 5-4.32 2.17-1.81 3.21-1.74 5.17.28.7.73 1.69 1.32 2.07 2.18a3.3 3.3 0 0 1 0 2.8c-2.03 2.47-4.34 4.68-6.52 6.92Zm-15.66 10.59c1-1.21 1.91-2.38 2.94-3.41s2.2-1.9 3.28-2.87a2.22 2.22 0 0 1 3.29-.05c1.55 1.31 3.18 2.55 4.72 3.89 2 1.69 2.18 1.68 3.82-.63a10.76 10.76 0 0 0-1-1.32c-1.59-1.5-3.24-2.94-4.82-4.45s-1.48-2.55-.17-3.63c2.38-2 4.7-4 7.16-6.08l-1.76-1.88c-2 1.86-4 3.61-5.89 5.4-2.4 2.25-3.42 2.18-5.79 0-2-1.82-4.23-3.4-6.5-5.21-.48.93-.8 1.53-1.09 2.1 1.65 1.48 3.2 2.77 4.64 4.17 2.19 2.14 2.26 2.94.4 5.4-1.69 2.23-3.51 4.36-5.29 6.57Z"/><path class="cls-8" d="M188.27 130.35v14a8 8 0 0 0 8 8h91.46"/><path class="cls-8" d="M59.29 130.35v14a8 8 0 0 0 8 8h220.44M188.27 174.94v-14.37a8.1 8.1 0 0 1 8-8.2h91.46"/><path class="cls-8" d="M59.29 174.94v-14.37a8.11 8.11 0 0 1 8-8.2h220.44"/><circle class="cls-6" cx="188.27" cy="174.94" r="3.06"/><circle class="cls-6" cx="188.27" cy="130.35" r="3.06"/><circle class="cls-6" cx="59.29" cy="174.94" r="3.06"/><circle class="cls-6" cx="59.29" cy="130.35" r="3.06"/></g></g></svg>