<svg width="448" height="276" fill="none" xmlns="http://www.w3.org/2000/svg"><g clip-path="url(#a)"><path d="M439.9 275.1H8.5c-4.4 0-8-3.6-8-8V8.4c0-4.4 3.6-8 8-8h431.4c4.4 0 8 3.6 8 8V267c0 4.5-3.6 8.1-8 8.1Z" stroke="#7AF7D1" stroke-miterlimit="10"/><path d="M223.9 112.903v-89.46c0-5.8 4.689-10.366 10.365-10.366h37.882c5.799 0 10.365 4.69 10.365 10.365v18.88c0 3.208-2.591 5.8-5.8 5.8a5.793 5.793 0 0 0-5.799 5.799v23.444c0 3.209 2.591 5.8 5.799 5.8h17.522" stroke="#007A60" stroke-width="2" stroke-miterlimit="10"/><path d="M259.067 36.4h-5.799a5.793 5.793 0 0 0-5.8 5.799v46.89c0 3.207 2.592 5.799 5.8 5.799h11.722c3.208 0 5.8 2.59 5.8 5.799v29.491a5.793 5.793 0 0 1-5.8 5.799h-17.522M282.512 36.4h24.802c5.799 0 10.365 4.688 10.365 10.364v42.324c0 3.208-2.591 5.8-5.8 5.8h-5.799" stroke="#007A60" stroke-width="2" stroke-miterlimit="10"/><path d="M282.512 71.566h17.522a5.792 5.792 0 0 1 5.799 5.8v35.167a5.792 5.792 0 0 1-5.799 5.799h-17.522M317.679 83.289h5.799c3.209 0 5.8 2.59 5.8 5.799v35.167c0 3.208-2.591 5.8-5.8 5.8h-11.722a5.792 5.792 0 0 0-5.799 5.799v23.445a5.792 5.792 0 0 0 5.799 5.799h5.799M223.9 159.792v88.967c0 5.799 4.689 10.365 10.365 10.365h24.802c6.417 0 11.723-5.306 11.723-11.723" stroke="#007A60" stroke-width="2" stroke-miterlimit="10"/><path d="M282.512 212.234H264.99a5.793 5.793 0 0 0-5.799 5.8v23.445a5.792 5.792 0 0 0 5.799 5.799h35.167c3.208 0 5.8-2.591 5.8-5.799v-17.522M294.234 130.178h-5.799a5.793 5.793 0 0 0-5.8 5.799v29.245M247.345 177.067h5.799c3.209 0 5.8-2.591 5.8-5.8v-11.722a5.792 5.792 0 0 1 5.799-5.799h17.522M223.9 177.067v17.522c0 3.208 2.591 5.8 5.8 5.8h35.167a5.793 5.793 0 0 0 5.799-5.8 5.792 5.792 0 0 1 5.8-5.799h23.444c3.208 0 5.8 2.591 5.8 5.799v5.8" stroke="#007A60" stroke-width="2" stroke-miterlimit="10"/><path d="M282.512 235.679v-5.8a5.792 5.792 0 0 1 5.799-5.799h35.167c3.209 0 5.8-2.591 5.8-5.8v-35.167a5.792 5.792 0 0 0-5.8-5.799h-23.444a5.793 5.793 0 0 1-5.8-5.8v-17.521M329.401 118.456h5.8a5.792 5.792 0 0 1 5.799 5.799v58.612a5.792 5.792 0 0 1-5.799 5.799h-5.8" stroke="#007A60" stroke-width="2" stroke-miterlimit="10"/><path d="M259.067 40.224a3.825 3.825 0 1 0 0-7.65 3.825 3.825 0 0 0 0 7.65ZM282.512 75.39a3.825 3.825 0 1 0 0-7.65 3.825 3.825 0 0 0 0 7.65ZM294.234 87.113a3.825 3.825 0 1 0 0-7.65 3.825 3.825 0 0 0 0 7.65ZM282.512 122.28a3.825 3.825 0 1 0 0-7.65 3.825 3.825 0 0 0 0 7.65ZM282.512 169.169a3.825 3.825 0 1 0 0-7.65 3.825 3.825 0 0 0 0 7.65ZM305.956 204.336a3.825 3.825 0 1 0 .002-7.65 3.825 3.825 0 0 0-.002 7.65ZM247.345 180.892a3.826 3.826 0 1 0-.001-7.651 3.826 3.826 0 0 0 .001 7.651ZM282.512 216.059a3.826 3.826 0 1 0-.001-7.651 3.826 3.826 0 0 0 .001 7.651ZM282.512 239.504a3.826 3.826 0 1 0-.002-7.652 3.826 3.826 0 0 0 .002 7.652ZM294.234 134.002a3.824 3.824 0 1 0 .001-7.649 3.824 3.824 0 0 0-.001 7.649ZM294.234 157.447a3.824 3.824 0 1 0 0-7.65 3.825 3.825 0 1 0 0 7.65ZM317.679 169.169a3.825 3.825 0 1 0 0-7.65 3.825 3.825 0 0 0 0 7.65Z" fill="#23DDA5"/><path d="M223.9 112.903v-89.46c0-5.8-4.689-10.366-10.365-10.366h-37.758c-5.8 0-10.365 4.69-10.365 10.365v18.88c0 3.208 2.591 5.8 5.799 5.8s5.8 2.59 5.8 5.799v23.444c0 3.209-2.592 5.8-5.8 5.8h-17.522" stroke="#007A60" stroke-width="2" stroke-miterlimit="10"/><path d="M188.733 36.4h5.799c3.209 0 5.8 2.59 5.8 5.799v46.89c0 3.207-2.591 5.799-5.8 5.799H182.81a5.793 5.793 0 0 0-5.8 5.799v29.491a5.793 5.793 0 0 0 5.8 5.799h17.522M165.288 36.4h-24.802c-5.799 0-10.365 4.688-10.365 10.364v42.324c0 3.208 2.591 5.8 5.8 5.8h5.799" stroke="#007A60" stroke-width="2" stroke-miterlimit="10"/><path d="M165.288 71.566h-17.521a5.793 5.793 0 0 0-5.8 5.8v35.167a5.792 5.792 0 0 0 5.8 5.799h17.521M130.121 83.289h-5.799a5.793 5.793 0 0 0-5.8 5.799v35.167c0 3.208 2.592 5.8 5.8 5.8h11.722c3.208 0 5.8 2.591 5.8 5.799v23.445a5.793 5.793 0 0 1-5.8 5.799h-5.799M223.9 159.792v88.967c0 5.799-4.689 10.365-10.365 10.365h-24.802c-6.417 0-11.723-5.306-11.723-11.723" stroke="#007A60" stroke-width="2" stroke-miterlimit="10"/><path d="M165.288 212.234h17.522a5.793 5.793 0 0 1 5.799 5.8v23.445a5.792 5.792 0 0 1-5.799 5.799h-35.167a5.792 5.792 0 0 1-5.799-5.799v-17.522M153.566 130.178h5.799c3.209 0 5.8 2.591 5.8 5.799v29.245M200.455 177.067h-5.799a5.793 5.793 0 0 1-5.8-5.8v-11.722a5.792 5.792 0 0 0-5.799-5.799h-17.522M223.9 177.067v17.522c0 3.208-2.591 5.8-5.799 5.8h-35.167a5.793 5.793 0 0 1-5.8-5.8 5.792 5.792 0 0 0-5.799-5.799H147.89a5.792 5.792 0 0 0-5.799 5.799v5.8" stroke="#007A60" stroke-width="2" stroke-miterlimit="10"/><path d="M165.288 235.679v-5.8a5.792 5.792 0 0 0-5.799-5.799h-35.167a5.793 5.793 0 0 1-5.8-5.8v-35.167a5.793 5.793 0 0 1 5.8-5.799h23.444c3.209 0 5.8-2.591 5.8-5.8v-17.521M118.399 118.456H112.6a5.792 5.792 0 0 0-5.8 5.799v58.612a5.792 5.792 0 0 0 5.8 5.799h5.799" stroke="#007A60" stroke-width="2" stroke-miterlimit="10"/><path d="M188.733 40.224a3.825 3.825 0 1 0 0-7.651 3.825 3.825 0 0 0 0 7.65ZM165.288 75.39a3.825 3.825 0 1 0 0-7.649 3.825 3.825 0 0 0 0 7.65ZM153.566 87.113a3.825 3.825 0 1 0 0-7.65 3.825 3.825 0 0 0 0 7.65ZM165.288 122.28a3.824 3.824 0 1 0 0-7.65 3.824 3.824 0 1 0 0 7.65ZM165.288 169.169a3.824 3.824 0 1 0 0-7.65 3.825 3.825 0 1 0 0 7.65ZM141.843 204.336a3.825 3.825 0 1 0 .002-7.65 3.825 3.825 0 0 0-.002 7.65ZM200.455 180.892a3.825 3.825 0 1 0 0-7.65 3.825 3.825 0 0 0 0 7.65ZM165.288 216.059a3.825 3.825 0 1 0 0-7.65 3.825 3.825 0 0 0 0 7.65ZM165.288 239.504a3.825 3.825 0 1 0 0-7.65 3.825 3.825 0 0 0 0 7.65ZM153.566 134.002a3.825 3.825 0 1 0 0-7.65 3.825 3.825 0 0 0 0 7.65ZM153.566 157.447a3.825 3.825 0 1 0 0-7.65 3.825 3.825 0 0 0 0 7.65ZM130.121 169.169a3.824 3.824 0 1 0 0-7.65 3.825 3.825 0 1 0 0 7.65Z" fill="#23DDA5"/><path d="M226.738 122.898v-2.591h.864v-1.851h-7.527v1.851h.863v2.591c-7.156 1.357-12.586 7.65-12.586 15.177 0 8.514 6.91 15.424 15.424 15.424 8.515 0 15.425-6.91 15.425-15.424.246-7.527-5.306-13.82-12.463-15.177Zm-2.468 23.198v-.864h-.864v.864a7.997 7.997 0 0 1-7.527-7.527h.864v-.864h-.864c.247-4.072 3.455-7.28 7.404-7.404v.864h.864v-.864a7.997 7.997 0 0 1 7.527 7.527h-.864v.864h.864c0 3.949-3.332 7.157-7.404 7.404Z" fill="#182931"/><path d="m227.108 134.374-2.715 2.344c-.493-.123-1.11-.123-1.481.371-.617.617-.617 1.48 0 2.097s1.481.617 2.098 0c.37-.37.494-.987.37-1.48l2.468-2.715-.74-.617Z" fill="#182931"/></g><defs><clipPath id="a"><path fill="#fff" d="M0 0h448v276H0z"/></clipPath></defs></svg>