<svg id="Layer_2" xmlns="http://www.w3.org/2000/svg" width="104.98" height="26.24"><defs><style>.cls-2{fill:#ff4500}.cls-3{fill:#1c1c1c}</style></defs><g id="Layer_1-2"><path class="cls-3" d="M102.23 22.98V11.39h1.31c.72.07 1.36-.47 1.42-1.19v-.16c.09-.72-.42-1.37-1.14-1.46h-1.6V6.42c0-.84-.63-1.54-1.47-1.61-.86-.05-1.6.6-1.67 1.46v2.35h-1.31c-.72-.07-1.36.47-1.42 1.19v.21c-.09.72.42 1.37 1.14 1.46h1.56v11.56c0 .86.7 1.56 1.56 1.56.86.04 1.59-.61 1.64-1.47 0-.05 0-.09-.03-.13Z"/><circle class="cls-2" cx="92.56" cy="5.82" r="2.78"/><path class="cls-3" d="M94.11 11.56c0-.86-.7-1.56-1.56-1.56s-1.56.7-1.56 1.56v11.43c0 .86.7 1.56 1.56 1.56s1.56-.7 1.56-1.56V11.56ZM71.02 2.87c0-.86-.7-1.56-1.56-1.56-.86 0-1.56.7-1.56 1.56v6.98a5.418 5.418 0 0 0-3.94-1.59c-4.07 0-7.47 3.74-7.47 8.33s3.29 8.33 7.41 8.33c1.52.04 2.99-.55 4.07-1.61a1.53 1.53 0 0 0 1.89 1.06h.03c.62-.2 1.06-.74 1.12-1.39V2.87ZM63.9 21.83c-2.4 0-4.36-2.32-4.36-5.25s1.94-5.25 4.36-5.25 4.34 2.34 4.34 5.25-1.93 5.18-4.33 5.18v.07ZM87.34 2.87c0-.86-.7-1.56-1.56-1.56-.86 0-1.55.69-1.55 1.55v6.99a5.458 5.458 0 0 0-3.94-1.59c-4.07 0-7.47 3.74-7.47 8.33s3.28 8.33 7.4 8.33a5.59 5.59 0 0 0 4.12-1.61 1.53 1.53 0 0 0 1.89 1.06h.03c.62-.19 1.07-.74 1.12-1.39l-.05-20.11Zm-7.12 18.96c-2.4 0-4.34-2.32-4.34-5.25s1.93-5.25 4.34-5.25 4.34 2.34 4.34 5.25-1.93 5.18-4.33 5.18v.07ZM53.21 17.63a1.95 1.95 0 0 0 2.09-1.81v-.2c-.01-.37-.05-.75-.13-1.12a7.634 7.634 0 0 0-7.23-6.24c-4.07 0-7.47 3.74-7.47 8.33s3.35 8.33 7.47 8.33c2.18.08 4.29-.8 5.76-2.41.6-.66.56-1.68-.1-2.28l-.14-.12a1.69 1.69 0 0 0-2.07.22c-.92.9-2.15 1.43-3.44 1.47a4.638 4.638 0 0 1-4.26-4.17h9.54Zm-5.25-6.24a4.47 4.47 0 0 1 4.05 3.46h-8.16a4.47 4.47 0 0 1 4.07-3.46h.04ZM40.63 9.88c0-.77-.55-1.43-1.31-1.55-2.11-.37-4.25.41-5.63 2.05v-.21a1.57 1.57 0 0 0-1.71-1.42c-.76.07-1.36.67-1.42 1.42v12.82c-.01.84.63 1.55 1.47 1.63.85.05 1.59-.59 1.65-1.44V16.44a4.745 4.745 0 0 1 4.47-5.01h.03c.24-.01.47-.01.71 0h.31c.8-.06 1.43-.73 1.43-1.54Z"/><g><circle class="cls-2" cx="13.12" cy="13.12" r="13.12"/><path d="M21.87 13.12a1.91 1.91 0 0 0-1.98-1.84c-.47.02-.92.21-1.26.53a9.304 9.304 0 0 0-5.05-1.61l.85-4.09 2.81.59c.08.72.72 1.24 1.44 1.16.72-.08 1.24-.72 1.16-1.44-.08-.72-.72-1.24-1.44-1.16-.41.04-.78.28-.99.64l-3.21-.64a.396.396 0 0 0-.48.31l-.97 4.56c-1.83.03-3.6.59-5.12 1.61-.77-.72-1.98-.69-2.71.08a1.923 1.923 0 0 0 .59 3.06c-.01.19-.01.39 0 .58 0 2.94 3.42 5.33 7.65 5.33s7.65-2.39 7.65-5.33c.01-.19.01-.39 0-.58a1.92 1.92 0 0 0 1.06-1.74ZM8.75 14.43c0-.72.59-1.31 1.31-1.31s1.31.59 1.31 1.31-.59 1.31-1.31 1.31-1.31-.59-1.31-1.31Zm7.62 3.61c-.93.7-2.08 1.06-3.24 1.01-1.16.05-2.31-.31-3.24-1.01-.12-.15-.1-.37.05-.5.13-.11.32-.11.45 0 .79.58 1.75.87 2.73.83.98.05 1.95-.23 2.74-.8.14-.14.38-.14.52 0s.14.38 0 .52v-.05Zm-.24-2.24c-.72 0-1.31-.59-1.31-1.31s.59-1.31 1.31-1.31 1.31.59 1.31 1.31c.03.72-.53 1.33-1.26 1.36h-.07v-.05Z" style="fill:#fff"/></g></g></svg>