<svg xmlns="http://www.w3.org/2000/svg" viewBox="0 0 652 652" style="enable-background:new 0 0 652 652" xml:space="preserve"><path d="M462.8 280.5H444c-.8 0-1.4.6-1.4 1.4V340c0 .8.6 1.4 1.4 1.4h18.7c.8 0 1.4-.6 1.4-1.4v-58.1c0-.7-.6-1.4-1.3-1.4m83.6-17.8h-18.7c-.8 0-1.4.6-1.4 1.4V340c0 .8.6 1.4 1.4 1.4h18.7c.8 0 1.4-.6 1.4-1.4v-75.9c0-.8-.7-1.4-1.4-1.4m-93-11.8c-6.6 0-11.9 5.3-11.9 11.8s5.3 11.8 11.9 11.8c6.6 0 11.9-5.3 11.9-11.8-.1-6.5-5.4-11.8-11.9-11.8M621 288.2V282c0-.8-.6-1.4-1.4-1.4h-18.7c-.8 0-1.4.6-1.4 1.4v31.7c0 6.6-3.6 10.1-8.7 10.1s-8.4-3.5-8.4-10.1V282c0-.8-.6-1.4-1.4-1.4h-18.7c-.8 0-1.4.6-1.4 1.4v31.7c0 12.5 1.8 18.4 3.9 21.2 3.7 4.9 9.2 7.9 16.4 7.9 6.5 0 11-3 15-6.1 1.3-1 3.2-1.6 3.2 1.1v5.4c-.1 3.6-2.5 6.7-5.5 8.3-.1 0-.1.1-.2.1-1.4.7-3.1 1.2-4.8 1.1 0 0-4.2 0-6.4-.4-.8-.1-1.6.4-1.6 1.2l-1.4 16.1c-.1.7.4 1.4 1.2 1.5 7 1.1 14.4.9 22.3-1.8 12.4-4.2 18-13.3 18-26.5v-54.6m-108.1-7.7h-8.4c-.8 0-1.4-.6-1.4-1.4V264c0-.8-.6-1.4-1.4-1.4H483c-.8 0-1.4.6-1.4 1.4v15.1c0 .8-.6 1.4-1.4 1.4h-5.8c-.8 0-1.4.6-1.4 1.4v16c0 .8.6 1.4 1.4 1.4h5.8c.8 0 1.4.6 1.4 1.4V327c0 8.7 6 15.7 15.8 15.7 7.2 0 13.3-1.1 15.9-2.3.6-.3 1-.7 1-1.3v-12.9c0-.8-.8-1.5-1.6-1.4-3.1.5-9.6 1.9-9.6-6.3v-17.8c0-.8.6-1.4 1.4-1.4h8.4c.8 0 1.4-.6 1.4-1.4v-16c0-.7-.6-1.4-1.4-1.4m-292.2 19.8c7.4 0 11.7-3.6 11.7-9.3v-.2c0-6.2-4.5-9.3-11.8-9.3h-12.9c-.8 0-1.4.6-1.4 1.4V299c0 .8.6 1.4 1.4 1.4h13zM184.4 264c0-.8.6-1.4 1.4-1.4h35.9c12.1 0 20.4 3.1 25.7 8.5 4.6 4.5 7 10.5 7 18.3v.2c0 11.4-5.8 19.1-14.8 23.4-.8.4-1 1.3-.6 2l16.4 23.9c.4.6.3 1.5-.4 1.9-.2.2-.5.2-.8.2h-21.6c-.6 0-1.2-.3-1.5-.8l-14.6-21.9c-.4-.7-1.2-1.1-2-1h-6.9c-.8 0-1.4.6-1.4 1.4v21c0 .8-.6 1.4-1.4 1.4h-19.1c-.8 0-1.4-.6-1.4-1.4l.1-75.7zm118 40.4c0 .8-.6 1.4-1.3 1.4H282c-.7 0-1.3-.6-1.3-1.4 0-5.9 4.7-10.6 10.8-10.6 6.5-.1 10.9 4.6 10.9 10.6zm-11.9-25.1c-19 0-30.9 14.8-30.9 32.4 0 17.5 13 31 30.9 31 16 0 25.5-6.9 29.9-17.3.4-.9-.3-1.9-1.3-1.9h-16.4c-.7 0-1.3.3-1.7.8-2.1 2.2-4.8 3.6-8.5 3.6-7 0-12.5-3.6-12.5-9.6 0-.8.6-1.4 1.4-1.4h39.2c.8 0 1.4-.6 1.4-1.4v-3.9c-.1-17.4-11-32.3-31.5-32.3zm117.9-.1c-8.4 0-14.4 3.4-19.5 8.8-.4.4-1.1.5-1.5.1l-.2-.2c-3.4-5.5-9.3-8.6-16.9-8.6h-.8c-6.3.2-11.8 3.2-15.5 7.7-.6.8-1.9.3-1.9-.7V282c0-.7-.6-1.3-1.3-1.3H332c-.8 0-1.4.6-1.4 1.4v58c0 .8.6 1.4 1.4 1.4h18.7c.8 0 1.4-.6 1.4-1.4v-31.7c0-6.6 3.6-10.1 8.7-10.1s8.4 3.5 8.4 10.1V340c0 .8.6 1.4 1.4 1.4h18.7c.8 0 1.4-.6 1.4-1.4v-31.7c0-6.6 3.7-10.1 8.8-10.1 5.1 0 8.4 3.5 8.4 10.1V340c0 .8.6 1.4 1.4 1.4H428c.8 0 1.4-.6 1.4-1.4v-38.5c-.1-14.2-8-22.3-21-22.3m-275.8 42-46.7-34c-2.4-1.7-5.5-1.7-7.9 0l-20.8 15.1c-1.2.9-2.7 1.2-4.2 1-1.5-.2-2.8-1-3.7-2.2-.9-1.2-1.2-2.7-1-4.2.2-1.5 1-2.8 2.2-3.7l14.8-10.7 12.9-9.3c7.2-5.2 17.1-4.6 23.5 1.5 1.4 1.4 3.6 1.4 5.2.3l25.7-18.7v64.9zm-.6 13.3-.1.4c-.2 1-.8 2.4-1.5 3.1-1.9 1.8-4.7 1.9-6.7.5L101 321.9l-.2-.1c-1.4-1-3.6-1-4.9.2-1.6 1.4-1.7 3.8-.3 5.4.2.2.4.4.6.5l.3.2 20.9 15.2c1.2.8 2 2.1 2.2 3.5.3 2-.5 3.8-2.1 5l-.5.3c-1.8 1.3-4.3 1.3-6.1 0L85 333.3c-1.4-1-3.6-1-4.9.2-1.6 1.4-1.7 3.8-.3 5.4.2.2.4.4.6.5l21.2 15.4c1.2.8 2 2.1 2.2 3.5.3 2-.5 3.8-2.1 5l-.5.3c-1.8 1.3-4.3 1.3-6.1 0l-4.7-3.4-21.2-15.4c-1.4-1-3.6-1-4.9.2-1.6 1.4-1.7 3.8-.3 5.4.2.2.4.4.6.5l21.2 15.4c1.2.8 2 2.1 2.2 3.5.3 2-.5 3.8-2.1 5l-.5.3c-1.6 1.2-3.7 1.3-5.5.4l-50.7-36.9v-82.2l22 16 6.9 5-12.6 9.2c-3 2.2-5 5.4-5.6 9.1-.6 3.6.3 7.4 2.5 10.4s5.4 5 9.1 5.6c.7.1 1.5.2 2.2.2 2.9 0 5.7-.9 8.2-2.7l17.6-12.8c1.4-1 3.2-1 4.6 0l46.2 33.6c1.4 1.1 2 2.8 1.7 4.5zm-5.3-84.1-20.9 15.2c-.6.5-1.5.5-2.2.1-8.6-5.6-19.7-5.8-28.4-.4-.3.1-.5.3-.8.4l-9 6.6-30.1-21.9h91.4zm13-7c-.8-.8-1.8-1.2-2.9-1.2H25.1c-2.3 0-4.1 1.9-4.1 4.1v94.3c0 1.3.6 2.6 1.7 3.4l53.7 39c2.7 2 6.4 2 9.1 0l53.7-39c1.1-.8 1.7-2 1.7-3.4v-94.4c0-1-.4-2.1-1.2-2.8zm63.1 136.8c0-2.8-2.1-4.7-5-4.7h-7.1v9.3h7.1c2.9 0 5-1.8 5-4.6zm-17.2 20.1V371h12.9c6.2 0 9.5 4.2 9.5 9.2 0 5-3.4 9.1-9.5 9.1h-7.8v11h-5.1zm25.7 0v-21.2h4.6v3.1c1.6-2 4.2-3.6 6.9-3.6v4.6c-.5-.1-.9-.1-1.4-.1-2 0-4.6 1.3-5.5 2.9v14.5l-4.6-.2m30.1-10.6c0-3.7-2.2-7-6.1-7-3.9 0-6.1 3.3-6.1 7 0 3.8 2.2 7.1 6.1 7.1 4 0 6.1-3.3 6.1-7.1zm-17 0c0-6.1 4.1-11.1 10.9-11.1 6.8 0 10.9 5 10.9 11.1s-4.1 11.2-10.9 11.2c-6.7-.1-10.9-5.2-10.9-11.2zm51.7 10.6v-13.8c0-2.3-1-3.8-3.5-3.8-2.1 0-4 1.4-4.9 2.8v14.9h-4.6v-13.8c0-2.3-1-3.8-3.5-3.8-2.1 0-4 1.4-4.9 2.8v14.9h-4.6v-21.2h4.6v2.9c.9-1.3 3.7-3.4 6.9-3.4s5.1 1.6 5.8 3.9c1.2-1.9 4-3.9 7.2-3.9 3.9 0 6.1 2.1 6.1 6.4v15.3l-4.6-.2m9.7 0h4.6v-21.2h-4.6v21.2zm-.5-26.7c0-1.6 1.3-2.9 2.8-2.9 1.6 0 2.9 1.3 2.9 2.8 0 1.6-1.3 2.9-2.8 2.9-1.6.1-2.9-1.2-2.9-2.8 0 .1 0 0 0 0zm9.3 23.9 2.1-3.3c1.5 1.5 4.4 2.9 7.2 2.9s4.2-1.1 4.2-2.8c0-4.2-12.8-1.2-12.8-9.4 0-3.5 3-6.4 8.3-6.4 3.6 0 6.3 1.3 8.2 2.9l-1.9 3.3c-1.3-1.4-3.6-2.5-6.3-2.5-2.4 0-3.9 1.1-3.9 2.6 0 3.7 12.8.9 12.8 9.4 0 3.8-3.1 6.6-8.8 6.6-3.6 0-6.9-1.1-9.1-3.3m31.1-15.2c-3.9 0-5.8 3-5.9 5.6h12c-.2-2.5-1.9-5.6-6.1-5.6zm-10.7 7.4c0-6.1 4.5-11.1 10.8-11.1 6.4 0 10.4 4.8 10.4 11.5v1.1h-16.3c.4 3.2 2.7 5.8 6.7 5.8 2.1 0 4.5-.8 6.1-2.4l2.1 3c-2.2 2-5.3 3.1-8.6 3.1-6.5.1-11.2-4.3-11.2-11zm23.1 7.8 2.1-3.3c1.5 1.5 4.4 2.9 7.2 2.9s4.2-1.1 4.2-2.8c0-4.2-12.8-1.2-12.8-9.4 0-3.5 3-6.4 8.3-6.4 3.6 0 6.3 1.3 8.2 2.9l-1.9 3.3c-1.3-1.4-3.6-2.5-6.3-2.5-2.4 0-3.9 1.1-3.9 2.6 0 3.7 12.8.9 12.8 9.4 0 3.8-3.1 6.6-8.8 6.6-3.7 0-6.9-1.1-9.1-3.3m54.9-11.9c0-5.6-3.5-10.1-10-10.1h-5.8v20.3h5.8c6.3 0 10-4.6 10-10.2zm-20.9 14.7V371H383c9.2 0 15.3 6.1 15.3 14.6 0 8.7-6.2 14.7-15.3 14.7h-10.9zm39.6-18c-3.9 0-5.8 3-5.9 5.6h12c-.2-2.5-1.9-5.6-6.1-5.6zm-10.7 7.4c0-6.1 4.5-11.1 10.8-11.1 6.4 0 10.4 4.8 10.4 11.5v1.1h-16.3c.4 3.2 2.7 5.8 6.7 5.8 2.1 0 4.5-.8 6.1-2.4l2.1 3c-2.2 2-5.3 3.1-8.6 3.1-6.5.1-11.2-4.3-11.2-11zm24.9 10.6h4.6V371h-4.6v29.3zm9.7 0h4.6v-21.2h-4.6v21.2zm-.6-26.7c0-1.6 1.3-2.9 2.8-2.9 1.6 0 2.9 1.3 2.9 2.8 0 1.6-1.3 2.9-2.8 2.9-1.6.1-2.9-1.2-2.9-2.8 0 .1 0 0 0 0zm16.7 26.7-8.7-21.2h5l6.2 15.9 6.2-15.9h4.9l-8.7 21.2h-4.9m24.2-18c-3.9 0-5.8 3-5.9 5.6h12c-.2-2.5-1.9-5.6-6.1-5.6zm-10.7 7.4c0-6.1 4.5-11.1 10.8-11.1 6.4 0 10.4 4.8 10.4 11.5v1.1h-16.3c.4 3.2 2.7 5.8 6.7 5.8 2.1 0 4.5-.8 6.1-2.4l2.1 3c-2.2 2-5.3 3.1-8.6 3.1-6.5.1-11.2-4.3-11.2-11zm24.9 10.6v-21.2h4.6v3.1c1.6-2 4.2-3.6 6.9-3.6v4.6c-.5-.1-.9-.1-1.4-.1-2 0-4.6 1.3-5.5 2.9v14.5l-4.6-.2m22.9-18c-3.9 0-5.8 3-5.9 5.6h12c-.2-2.5-1.9-5.6-6.1-5.6zm-10.7 7.4c0-6.1 4.5-11.1 10.8-11.1 6.4 0 10.4 4.8 10.4 11.5v1.1h-16.3c.4 3.2 2.7 5.8 6.7 5.8 2.1 0 4.5-.8 6.1-2.4l2.1 3c-2.2 2-5.3 3.1-8.6 3.1-6.5.1-11.2-4.3-11.2-11zm39.8 4.2v-8.4c-1-1.6-3.3-2.9-5.4-2.9-3.7 0-6 2.9-6 7s2.3 7.1 6 7.1c2.1.1 4.4-1.2 5.4-2.8zm0 6.4v-2.9c-1.6 2.1-4 3.4-6.8 3.4-5.4 0-9.4-4.1-9.4-11.2 0-6.9 4-11.1 9.4-11.1 2.7 0 5.1 1.2 6.8 3.5v-11h4.6v29.3h-4.6z" style="fill:#212e61"/></svg>