<svg width="106" height="50" fill="none" xmlns="http://www.w3.org/2000/svg"><path fill-rule="evenodd" clip-rule="evenodd" d="M93.088 25.483c0-5.753-2.786-10.292-8.112-10.292-5.348 0-8.584 4.54-8.584 10.247 0 6.764 3.82 10.18 9.303 10.18 2.674 0 4.697-.607 6.225-1.46v-4.495c-1.528.764-3.281 1.236-5.506 1.236-2.18 0-4.112-.764-4.36-3.416h10.99c0-.292.044-1.46.044-2Zm-11.1-2.135c0-2.539 1.55-3.595 2.965-3.595 1.371 0 2.832 1.056 2.832 3.595h-5.798ZM67.718 15.191c-2.203 0-3.618 1.034-4.405 1.753l-.292-1.393h-4.944v26.202l5.618-1.191.023-6.36c.808.584 2 1.416 3.977 1.416 4.023 0 7.685-3.236 7.685-10.36-.022-6.516-3.73-10.067-7.662-10.067Zm-1.349 15.483c-1.326 0-2.112-.472-2.651-1.056l-.023-8.337c.584-.652 1.393-1.101 2.674-1.101 2.045 0 3.46 2.292 3.46 5.236 0 3.011-1.392 5.258-3.46 5.258ZM50.347 13.865l5.64-1.213V8.09l-5.64 1.19v4.585Z" fill="#635BFF"/><path d="M55.987 15.573h-5.64v19.663h5.64V15.573Z" fill="#635BFF"/><path fill-rule="evenodd" clip-rule="evenodd" d="m44.302 17.236-.36-1.663h-4.854v19.663h5.618V21.91c1.326-1.73 3.573-1.416 4.27-1.168v-5.169c-.72-.27-3.348-.764-4.674 1.663ZM33.066 10.697l-5.484 1.168-.022 18c0 3.326 2.494 5.775 5.82 5.775 1.843 0 3.191-.337 3.933-.741v-4.562c-.72.292-4.27 1.326-4.27-2V20.36h4.27v-4.787h-4.27l.023-4.876ZM17.875 21.28c0-.876.719-1.213 1.91-1.213 1.708 0 3.865.517 5.573 1.439v-5.281c-1.865-.742-3.708-1.034-5.573-1.034-4.562 0-7.596 2.382-7.596 6.36 0 6.202 8.54 5.213 8.54 7.887 0 1.034-.9 1.371-2.158 1.371-1.865 0-4.247-.764-6.135-1.798v5.348c2.09.9 4.203 1.281 6.135 1.281 4.674 0 7.888-2.314 7.888-6.337-.023-6.696-8.584-5.505-8.584-8.022Z" fill="#635BFF"/></svg>