<svg width="448" height="305" fill="none" xmlns="http://www.w3.org/2000/svg"><mask id="a" style="mask-type:alpha" maskUnits="userSpaceOnUse" x="195" y="50" width="229" height="34"><path d="M224.675 50.275c-7.199 0-10.799 13.187-29.246 13.187v7.033c18.447 0 22.047 13.186 29.246 13.186 7.199 0 7.649-13.186 22.947-13.186 15.298 0 10.799 10.634 15.298 10.634 3.6 0 1.8-10.634 9.899-10.634 8.099 0 5.849 4.254 10.799 4.254 4.949 0 4.499-4.254 11.698-4.254 5.849 0 7.649 11.91 13.498 11.91 6.75 0 5.4-11.91 15.299-11.91 6.749 0 6.299 2.552 11.248 2.552 4.949 0 6.299-2.552 10.799-2.552 8.099 0 12.598 8.507 18.447 8.507 6.3 0 11.249-8.507 20.698-8.507 8.099 0 6.749 13.186 12.598 13.186 4.95 0 4.95-13.186 12.599-13.186H424v-7.033h-13.498c-7.649 0-7.649-13.187-12.599-13.187-5.849 0-4.499 13.187-12.598 13.187-9.449 0-14.398-8.508-20.698-8.508-5.849 0-10.348 8.508-18.447 8.508-4.5 0-5.85-2.553-10.799-2.553s-4.499 2.553-11.248 2.553c-9.899 0-8.549-11.911-15.299-11.911-5.849 0-7.649 11.91-13.498 11.91-7.199 0-6.749-4.253-11.698-4.253-4.95 0-2.7 4.254-10.799 4.254s-6.299-10.635-9.899-10.635c-4.499 0 0 10.635-15.298 10.635s-15.748-13.187-22.947-13.187Z" fill="#000"/></mask><g mask="url(#a)" stroke="#FCA119"><path d="M420.901 49.396v35.165M418.201 49.396v35.165M415.501 49.396v35.165M412.802 49.396v35.165M410.102 49.396v35.165M407.402 49.396v35.165M404.703 49.396v35.165M402.003 49.396v35.165M399.303 49.396v35.165M396.604 49.396v35.165M393.904 49.396v35.165M391.204 49.396v35.165M388.505 49.396v35.165M385.805 49.396v35.165M383.105 49.396v35.165M380.406 49.396v35.165M377.706 49.396v35.165M375.006 49.396v35.165M372.307 49.396v35.165M369.607 49.396v35.165M366.907 49.396v35.165M364.208 49.396v35.165M361.508 49.396v35.165M358.808 49.396v35.165M356.109 49.396v35.165M353.409 49.396v35.165M350.709 49.396v35.165M348.01 49.396v35.165M345.31 49.396v35.165M342.61 49.396v35.165M339.911 49.396v35.165M337.211 49.396v35.165M334.511 49.396v35.165M331.812 49.396v35.165M329.112 49.396v35.165M326.412 49.396v35.165M323.713 49.396v35.165M321.013 49.396v35.165M318.313 49.396v35.165M315.614 49.396v35.165M312.852 49.396V75.77M310.214 49.396V75.77M307.577 49.396V75.77M304.94 49.396v27.253M302.302 49.396v27.253M299.416 49.396v35.165M296.716 49.396v35.165M294.016 49.396v35.165M291.317 49.396v35.165M288.617 49.396v35.165M285.917 49.396v35.165M283.218 49.396v35.165M280.518 49.396v35.165M277.818 49.396v35.165M275.119 49.396v35.165M272.419 49.396v35.165M269.719 49.396v35.165M267.02 49.396v35.165M264.5 49.396V75.77M261.863 49.396V75.77M258.921 49.396v35.165M256.221 49.396v35.165M253.521 49.396v35.165M250.822 49.396v35.165M248.122 49.396v35.165M245.422 49.396v35.165M242.723 49.396v35.165M240.023 49.396v35.165M237.323 49.396v35.165M234.624 49.396v35.165M231.973 49.396v27.253M229.335 49.396v27.253M226.698 49.396v27.253M224.061 49.396v27.253M221.423 49.396V75.77M218.786 49.396V75.77M216.149 49.396V75.77M213.026 49.396v35.165M210.327 49.396v35.165M207.627 49.396v35.165M204.927 49.396v35.165M202.228 49.396v35.165M199.528 49.396v35.165M196.828 49.396v35.165"/></g><path fill-rule="evenodd" clip-rule="evenodd" d="M210.549 46H408c8.284 0 15 6.716 15 15v11.956c0 8.284-6.716 15-15 15h-44.237c.08.33.15.663.21 1H408c8.837 0 16-7.163 16-16V61c0-8.837-7.163-16-16-16H210.549c-8.836 0-16 7.163-16 16v11.956c0 .96.085 1.9.247 2.813h1.017a15.071 15.071 0 0 1-.264-2.813V61c0-8.284 6.716-15 15-15Z" fill="#FCA119"/><path d="M260.863 161.923c0 20.602-16.701 37.302-37.302 37.302-20.602 0-37.303-16.7-37.303-37.302 0-20.601 16.701-37.302 37.303-37.302 20.601 0 37.302 16.701 37.302 37.302Z" stroke="#FCA119"/><path d="m214.83 146.801 26.192 15.122-26.192 15.122v-30.244Z" stroke="#FCA119"/><rect x="287.357" y="238.907" width="14.824" height="20.099" rx="7.412" stroke="#FCA119"/><rect x="310.214" y="231.874" width="14.824" height="27.132" rx="7.412" stroke="#FCA119"/><rect x="333.071" y="210.775" width="14.824" height="48.231" rx="7.412" stroke="#FCA119"/><rect x="355.929" y="182.643" width="14.824" height="76.363" rx="7.412" stroke="#FCA119"/><rect x="378.786" y="147.478" width="14.824" height="111.527" rx="7.412" stroke="#FCA119"/><rect x="24.5" y="139.566" width="84.275" height="84.275" rx="15.5" stroke="#FCA119"/><path fill-rule="evenodd" clip-rule="evenodd" d="M98.901 76.769H348.22c8.284 0 15 6.716 15 15v141.187c0 8.284-6.716 15-15 15H98.901c-8.284 0-15-6.716-15-15v-8.616h-1v8.616c0 8.836 7.164 16 16 16H348.22c8.836 0 16-7.164 16-16V91.769c0-8.837-7.164-16-16-16H98.901c-8.836 0-16 7.163-16 16v47.297h1V91.769c0-8.284 6.716-15 15-15Z" fill="#FCA119"/><path d="m108.835 188.297-18.08-18.08a8 8 0 0 0-11.313 0l-23.411 23.412a8 8 0 0 1-11.314 0l-1.434-1.434a8 8 0 0 0-11.314 0l-7.53 7.53M56.907 162.802a9.17 9.17 0 0 1-9.17 9.17 9.17 9.17 0 1 1 9.17-9.17Z" stroke="#FCA119"/><rect x=".5" y=".5" width="446.9" height="303.7" rx="7.5" stroke="#FCD293"/></svg>